<?xml version="1.0" encoding="UTF-8" standalone="no"?>
<!-- Created with Inkscape (http://www.inkscape.org/) -->

<svg
   xmlns:dc="http://purl.org/dc/elements/1.1/"
   xmlns:cc="http://creativecommons.org/ns#"
   xmlns:rdf="http://www.w3.org/1999/02/22-rdf-syntax-ns#"
   xmlns:svg="http://www.w3.org/2000/svg"
   xmlns="http://www.w3.org/2000/svg"
   xmlns:sodipodi="http://sodipodi.sourceforge.net/DTD/sodipodi-0.dtd"
   xmlns:inkscape="http://www.inkscape.org/namespaces/inkscape"
   width="261.47485mm"
   height="103.25847mm"
   viewBox="0 0 261.47484 103.25847"
   version="1.1"
   id="svg8"
   inkscape:version="0.92.4 (5da689c313, 2019-01-14)"
   sodipodi:docname="fisherman_line.svg">
  <defs
     id="defs2" />
  <sodipodi:namedview
     id="base"
     pagecolor="#ffffff"
     bordercolor="#666666"
     borderopacity="1.0"
     inkscape:pageopacity="0.0"
     inkscape:pageshadow="2"
     inkscape:zoom="0.7"
     inkscape:cx="74.941792"
     inkscape:cy="181.26083"
     inkscape:document-units="mm"
     inkscape:current-layer="layer1"
     showgrid="false"
     inkscape:window-width="1920"
     inkscape:window-height="1057"
     inkscape:window-x="-8"
     inkscape:window-y="-8"
     inkscape:window-maximized="1"
     fit-margin-top="0"
     fit-margin-left="0"
     fit-margin-right="0"
     fit-margin-bottom="0" />
  <metadata
     id="metadata5">
    <rdf:RDF>
      <cc:Work
         rdf:about="">
        <dc:format>image/svg+xml</dc:format>
        <dc:type
           rdf:resource="http://purl.org/dc/dcmitype/StillImage" />
        <dc:title></dc:title>
      </cc:Work>
    </rdf:RDF>
  </metadata>
  <g
     inkscape:label="Layer 1"
     inkscape:groupmode="layer"
     id="layer1"
     transform="translate(-35.050302,149.62318)">
    <path
       style="fill:#000000;stroke-width:1"
       d="m 211.93587,-123.8526 c -0.2335,0.12655 -1.09813,-0.28655 -1.92123,-0.91778 -1.71108,-1.31216 -4.32157,-2.3821 -7.14922,-2.93018 -1.36529,-0.26462 -2.17047,-0.69282 -2.6823,-1.42644 -0.80994,-1.16096 -1.26086,-1.03313 -1.34205,0.38046 -0.0294,0.51265 -0.7055,1.64695 -1.50235,2.52069 -0.79686,0.87372 -2.22286,2.59541 -3.16885,3.82594 -2.14033,2.7841 -2.74577,2.84787 -2.23362,0.23537 0.45186,-2.30495 2.26896,-5.53325 4.06003,-7.21307 0.70347,-0.65979 1.2949,-1.47589 1.31428,-1.81356 0.0585,-1.0182 -2.25385,-3.82403 -4.04055,-4.90293 -2.4319,-1.46852 -8.23391,-1.75715 -11.42993,-0.56862 -1.24118,0.4616 -2.19942,1.05136 -2.12941,1.31062 0.0701,0.25926 0.9293,0.8215 1.90947,1.24941 2.23385,0.97524 2.41218,1.55684 0.62041,2.02342 -2.70615,0.70469 -4.71687,0.70818 -5.5505,0.01 -0.70725,-0.5927 -0.72824,-0.8089 -0.19862,-2.04655 0.51405,-1.2013 0.49505,-1.6048 -0.14422,-3.05921 -0.86037,-1.95747 -0.8072,-3.97132 0.16505,-6.25081 0.38258,-0.89702 0.70603,-1.76301 0.71876,-1.9244 0.0353,-0.44539 -2.92292,0.50268 -6.3607,2.03864 -2.75024,1.22881 -3.30078,1.33471 -5.19485,0.99933 l -2.11857,-0.37514 2.06437,2.34527 c 2.23903,2.5437 2.71547,4.02485 2.5149,7.81838 -0.11933,2.27022 0.3316,2.81517 1.1813,1.42544 0.68011,-1.11236 2.04903,-0.96746 2.15687,0.22839 0.15765,1.74826 -0.63801,4.58316 -1.43013,5.09536 -0.42834,0.27695 -1.18224,0.37734 -1.67541,0.22299 -0.76071,-0.23804 -1.04067,0.0165 -1.8464,1.6783 -1.97695,4.07744 -4.99065,11.96506 -5.06478,13.25581 -0.0576,1.00399 -0.85861,1.37136 -1.13086,0.51868 -0.3303,-1.0346 1.98341,-7.43226 5.15454,-14.25293 1.58904,-3.41782 1.66457,-3.75295 1.57981,-7.01064 -0.13498,-5.18788 -0.47636,-6.29957 -2.64028,-8.59756 -1.84691,-1.96135 -3.08691,-4.30073 -2.53869,-4.78942 0.1436,-0.12805 1.00466,0.11546 1.91339,0.541 2.45179,1.1482 3.45011,1.05757 7.73216,-0.70187 2.1431,-0.88056 4.51787,-1.70007 5.2773,-1.82107 0.83084,-0.13241 1.86513,-0.76034 2.5969,-1.57671 1.46579,-1.6352 2.49712,-1.77053 2.0263,-0.26588 -0.30873,0.98658 -0.24495,1.03038 1.6644,1.1431 4.38479,0.2584 9.87891,3.28198 13.34681,7.34404 0.94707,1.10931 2.29297,3.40239 2.99092,5.09574 l 1.26899,3.07879 2.23473,0.14857 c 2.7892,0.18532 4.87947,1.36398 6.99976,3.94689 1.94127,2.36485 2.58879,3.64711 2.00207,3.96475 z m -6.81976,-6.25757 c -1.97464,-0.78424 -4.06271,-0.78972 -4.10744,-0.0108 -0.0346,0.6035 1.18967,1.18585 3.35434,1.5955 1.07942,0.20425 2.47075,0.52636 3.09185,0.71573 1.12141,0.34191 1.12422,0.33789 0.4021,-0.57821 -0.39995,-0.50739 -1.63333,-1.2824 -2.74085,-1.72225 z m -7.08228,-5.35676 c -1.4313,-3.08151 -4.64313,-6.42385 -8.11411,-8.44385 -2.46363,-1.43374 -3.59037,-1.82692 -6.12032,-2.13571 l -3.1008,-0.37848 -0.37641,1.5196 c -0.20704,0.8358 -0.33027,2.35941 -0.27384,3.38579 0.0562,1.0264 -0.0583,1.95322 -0.25485,2.05961 -0.63835,0.34587 -1.14021,-1.43917 -1.04174,-3.70577 l 0.0963,-2.21501 -0.86659,1.62115 c -1.14759,2.14679 -1.33441,5.05853 -0.4114,6.41322 l 0.71354,1.04737 1.5339,-0.83044 c 0.84351,-0.457 2.92144,-1.03854 4.61729,-1.29298 6.19505,-0.92928 11.69355,1.37282 13.62791,5.70572 0.64944,1.45472 1.5089,1.67928 1.17861,0.30793 -0.12619,-0.52419 -0.66949,-1.90039 -1.20734,-3.05816 z m -0.85338,6.80379 c -0.48951,-0.0281 -2.7457,2.84477 -2.47372,3.14986 0.21209,0.23795 2.78377,-2.31136 2.84021,-2.81553 0.0196,-0.17119 -0.14575,-0.32165 -0.36649,-0.33433 z m -18.75117,-5.67186 c -0.75139,-0.0432 -1.20125,0.7654 -0.72384,1.30097 0.23325,0.26168 0.91847,0.36032 1.59989,0.23035 1.14453,-0.21842 1.16116,-0.25274 0.4181,-0.86441 -0.42555,-0.35034 -1.00795,-0.65044 -1.29415,-0.66687 z m -8.26011,4.12065 c -0.41549,-0.0239 -1.42301,1.78965 -1.47243,2.65035 -0.0478,0.8316 0.65718,0.80052 1.22282,-0.0538 0.56742,-0.85711 0.73197,-2.56881 0.2497,-2.59649 z"
       id="path826-0"
       inkscape:connector-curvature="0"
       sodipodi:nodetypes="csscscsscscscccccsscsscsccsccssssssccsccccccccccccscscccsscscccccscsccccccccccscccccsccc" />
    <path
       style="fill:#000000;stroke-width:1"
       d="m 270.33618,-47.523433 c 0.37651,-0.281415 1.84149,-2.526522 3.25555,-4.988992 1.414,-2.462564 2.72617,-4.379529 2.91563,-4.260094 0.72997,0.460144 2.36041,3.673818 2.65965,5.242283 0.35079,1.838676 0.79582,2.338374 1.32913,1.492326 0.58327,-0.925303 -1.08867,-5.487652 -2.61688,-7.14093 -1.1352,-1.228082 -1.40292,-1.989258 -1.34366,-3.820303 0.0813,-2.513639 -0.87724,-5.698676 -2.4776,-8.23216 -1.19016,-1.884179 -1.11214,-2.221551 0.53226,-2.301486 1.03821,-0.05044 1.28995,0.11186 2.00841,1.295201 0.59613,0.981946 1.78848,1.907709 4.34787,3.375803 l 3.52654,2.022792 -0.68572,2.630802 c -0.37713,1.44696 -0.99884,3.365838 -1.38158,4.264203 -1.29905,3.049175 0.34859,7.851296 3.35425,9.776126 1.83401,1.175049 6.15802,2.26818 6.32368,1.599318 0.0825,-0.33293 -1.01231,-1.456451 -2.60544,-2.673704 -3.016,-2.304397 -4.06599,-4.131882 -3.47233,-6.043454 0.19453,-0.626496 1.11852,-2.684393 2.10714,-4.54493 l 1.75341,-3.405898 1.42801,0.545738 c 2.52352,0.964442 3.34903,1.725216 3.73918,3.446086 0.35876,1.582265 0.26177,1.843402 -1.60321,4.31673 -1.4486,1.921095 -1.83287,2.669912 -1.42182,2.770827 0.81443,0.199906 3.06911,-2.271607 4.01579,-4.401974 0.5896,-1.326793 0.65112,-2.338958 0.2236,-3.678891 -0.55094,-1.726779 -0.77526,-1.941359 -3.40613,-3.258684 l -2.81637,-1.410181 0.25961,-1.514639 c 0.14276,-0.833054 0.14674,-1.86022 0.009,-2.282595 -0.15868,-0.485979 0.13003,-1.199206 0.78632,-1.942507 0.85306,-0.966152 0.97195,-1.583608 0.6696,-3.479767 -0.68437,-4.292782 -5.1102,-10.300789 -9.73631,-13.216871 -8.23509,-5.191027 -18.32111,-3.501119 -23.82944,3.992644 -1.67683,2.281227 -1.80919,2.656657 -1.56359,4.437005 0.3461,2.509189 1.6664,3.953998 7.124,7.795821 4.42056,3.111814 4.45912,3.153186 4.3944,4.714977 -0.0709,1.712213 1.33527,4.077942 3.0892,5.197095 0.60808,0.387229 1.2211,0.96231 1.36298,1.276828 0.50345,1.115803 -0.0567,3.920824 -1.58794,7.950842 -1.6384,4.312211 -1.78484,5.290236 -0.66693,4.454537 z m 3.90337,-10.971799 c 0.20016,-0.04534 0.28344,0.316395 0.18539,0.803734 -0.14177,0.704336 -0.2164,0.721266 -0.36375,0.08246 -0.10196,-0.442057 -0.0217,-0.840832 0.17837,-0.886191 z m 9.33448,4.890539 c -0.27393,-1.208283 -0.21784,-2.94253 0.12802,-3.956946 1.24384,-3.648208 1.82078,-5.523409 1.95165,-6.343427 0.0945,-0.591711 0.42563,-0.763727 1.12093,-0.58242 1.54095,0.401866 1.54313,0.976659 0.012,4.036692 -2.09991,4.197027 -2.60515,6.115702 -2.10453,7.992376 0.25293,0.94822 0.21538,1.53157 -0.0864,1.341356 -0.29369,-0.185122 -0.75344,-1.304548 -1.02168,-2.487631 z m -12.14266,-13.960749 c -1.02354,-0.899531 -1.27151,-1.414779 -0.93659,-1.946097 0.71843,-1.139737 1.29004,-0.860668 2.59101,1.264953 1.40568,2.296708 2.71133,7.447141 1.97868,7.805382 -0.27815,0.136066 -0.88644,-1.119058 -1.37059,-2.828128 -0.59612,-2.104374 -1.30907,-3.458253 -2.26251,-4.29612 z m -1.93639,1.950614 c -0.63669,-2.808197 1.89737,-0.936767 2.69323,1.988978 l 0.46963,1.726506 -1.4338,-1.206585 c -0.7886,-0.663599 -1.56665,-1.792628 -1.72906,-2.508899 z m -8.98073,-9.542874 c -3.41255,-3.02591 -3.42723,-5.666107 -0.0492,-8.835573 3.02475,-2.837969 4.81868,-3.815264 8.46395,-4.610961 4.44861,-0.971045 8.1793,-0.220385 12.41848,2.498728 4.53857,2.911147 8.49527,8.138265 9.01554,11.910255 0.32372,2.347038 -0.0179,3.00318 -0.99474,1.90997 -3.72879,-4.173395 -4.91516,-5.210456 -7.45049,-6.513036 -6.01568,-3.090587 -11.94462,-3.351563 -15.50318,-0.682408 -1.84744,1.385727 -1.86247,1.413331 -1.44224,2.649449 0.2341,0.688656 1.42145,2.051919 2.6462,3.038232 2.39837,1.93151 2.62044,2.453421 1.46052,3.432455 -0.66775,0.563586 -1.09363,0.415897 -3.79901,-1.319091 -1.67552,-1.075114 -3.82047,-2.639773 -4.76592,-3.478049 z m 6.10128,-1.29066 c -0.5557,-0.730968 -0.52771,-1.081875 0.13189,-1.65279 3.67903,-3.18443 11.48197,-2.11933 17.31701,2.363774 1.41055,1.083636 2.94207,2.613013 3.40346,3.398505 l 0.83891,1.428133 -1.45214,0.172477 c -1.58779,0.188573 -2.38018,-0.376885 -4.5925,-3.277301 -2.5114,-3.292542 -5.5558,-3.521087 -6.64585,-0.499468 -0.40041,1.109885 -0.83194,1.459633 -2.23031,1.808411 -1.58496,0.395207 -1.91987,0.292972 -3.89943,-1.190703 -1.19101,-0.892736 -2.48304,-2.040631 -2.87104,-2.551047 z m 11.41435,5.585045 c 0.27853,-0.441864 1.6771,-0.244259 3.8452,0.543322 1.5277,0.55497 2.55287,2.357513 1.60451,2.82123 -0.72149,0.352794 -5.81193,-2.789936 -5.4497,-3.364584 z m 7.26554,1.726319 c 0.18399,-0.291878 3.04125,-0.227833 3.52815,0.07909 0.43996,0.277304 -0.0988,3.429085 -0.60315,3.528168 -1.14621,0.225195 -2.35633,-0.627952 -2.73177,-1.925941 -0.21679,-0.749394 -0.30372,-1.506024 -0.19318,-1.68139 z m -8.3808,-4.96484 c 0.28021,-1.411081 1.98053,-1.37529 3.60266,0.07583 2.00716,1.795542 1.82559,2.3079 -0.62186,1.754796 -2.71341,-0.6132 -3.16722,-0.891915 -2.98081,-1.830597 z"
       id="path826-5"
       inkscape:connector-curvature="0"
       sodipodi:nodetypes="ccscsccccccccsccccscscssccccccccsccscccscccccccsccccsccsccccccccccsscccscccsccccccccccccccsccsscsccccccccc" />
    <path
       style="fill:#000000;stroke-width:0.99999994"
       d="m 253.37678,-81.181667 c 0.098,-0.504514 -0.51663,-2.214875 -1.36574,-3.800773 -2.51771,-4.701955 -2.64035,-5.280093 -2.45006,-11.550171 0.21362,-7.039299 -0.23109,-9.971159 -2.41202,-15.902189 -1.42609,-3.87826 -1.50703,-4.39773 -0.72528,-4.65533 0.98325,-0.32395 1.35889,-1.38279 0.70481,-1.98667 -0.23541,-0.21726 -1.97561,-1.09842 -3.86711,-1.95802 -1.89149,-0.85958 -4.38467,-2.20586 -5.54035,-2.99172 -3.4524,-2.34758 -7.76718,-3.77377 -11.33058,-3.74523 -3.5064,0.0281 -6.74288,1.1731 -7.70644,2.72642 -0.36711,0.59181 -1.49836,1.37099 -2.51392,1.73151 -4.98779,1.77073 -3.07856,4.53365 4.18536,6.05672 l 1.88237,0.3948 -0.47949,2.46777 c -0.6011,3.09357 0.43431,7.4007 1.90119,7.90886 2.12651,0.73659 3.76596,-5.16337 2.29341,-8.25332 -0.96746,-2.0301 -0.81341,-2.37894 1.0187,-2.30622 3.66923,0.14565 8.70225,2.92212 10.96097,6.0466 0.91435,1.26486 1.21179,3.24655 0.46547,3.10154 -0.68885,-0.13386 -3.16813,-2.43771 -5.05436,-4.69675 -1.15694,-1.38559 -2.29473,-2.55641 -2.52841,-2.60183 -1.99405,-0.38745 3.47259,6.5939 6.28546,8.02703 2.83126,1.44253 4.08389,-0.92788 2.1973,-4.15799 -2.36982,-4.05745 -9.29503,-7.45957 -13.96692,-6.86145 -1.92259,0.24614 -6.13365,-0.50024 -8.99271,-1.59395 -1.8938,-0.72437 -1.6858,-1.75381 0.46724,-2.3104 0.92879,-0.24018 2.23926,-1.11992 2.9308,-1.96744 0.96108,-1.17784 1.89378,-1.65852 4.02602,-2.07486 4.21462,-0.8229 7.63877,0.003 12.89648,3.10834 2.37714,1.40426 5.21359,2.89084 6.30329,3.30353 1.83171,0.69361 1.95077,0.84551 1.57736,2.01167 -0.27964,0.8733 0.0363,2.42316 1.02695,5.03818 2.60317,6.87145 3.1424,10.60292 2.54116,17.584739 -0.31431,3.649941 0.33285,6.570213 2.20713,9.959594 0.81822,1.479664 1.37803,2.764317 1.244,2.854727 -0.13396,0.09062 -1.30359,-0.497143 -2.59903,-1.3056 -1.93537,-1.207943 -3.05066,-1.562067 -6.25514,-1.986065 -4.19111,-0.554554 -4.42918,-0.909925 -1.22584,-1.830603 3.92556,-1.128096 4.76534,-2.991009 3.5298,-7.830283 -1.04676,-4.09987 -6.93649,-12.115949 -7.34759,-10.000219 -0.0398,0.20483 1.13163,1.96063 2.60322,3.90174 2.92039,3.852329 4.47305,8.125887 3.76389,10.359895 -0.31698,0.998534 -1.00979,1.487978 -3.14568,2.222235 -1.67533,0.575959 -2.9322,1.342176 -3.23612,1.972898 -0.83005,1.722571 -0.0764,2.181289 3.67654,2.237842 3.24626,0.04892 3.52869,0.133222 6.49233,1.937518 3.78709,2.305654 5.31322,2.693383 5.56199,1.413095 z m -30.52486,-32.741523 c 0.31007,-1.63526 0.99058,-1.86121 1.7622,-0.58453 0.75926,1.25625 0.7126,4.04447 -0.0955,5.7077 -0.59948,1.23384 -0.60961,1.2233 -1.25483,-1.30968 -0.35777,-1.40443 -0.5431,-3.12051 -0.41187,-3.81349 z"
       id="path826-4"
       inkscape:connector-curvature="0"
       sodipodi:nodetypes="cscsccccsscccsccscscsssccccscscscscscscsccccccccccccc" />
    <path
       style="fill:#000000;fill-opacity:1;stroke:none;stroke-width:0.99999994;stroke-opacity:1"
       d="m 122.66173,-83.824305 c 0.80497,-0.285814 0.65702,-1.15665 -0.43761,-2.575372 -1.14809,-1.48804 -0.9457,-1.529101 2.5081,-0.50859 2.86173,0.845572 11.5631,2.332551 12.05027,2.059267 0.66124,-0.37095 -0.1184,-0.967234 -2.18449,-1.670893 -4.32261,-1.472128 -4.10538,-1.855584 1.65667,-2.924534 4.5872,-0.851004 7.13609,-1.769658 9.84974,-3.549987 1.1092,-0.727741 2.15813,-1.31717 2.33094,-1.309823 0.17278,0.0073 2.24671,1.197826 4.60867,2.645572 4.90846,3.008568 5.66474,3.229066 5.32614,1.552949 -0.30827,-1.52604 -1.34787,-3.446458 -2.17423,-4.016217 -1.09976,-0.758332 -1.28076,-0.06509 -0.34469,1.319994 0.47916,0.709037 0.75614,1.394816 0.61555,1.523965 -0.1407,0.129057 -1.50824,-0.56973 -3.03921,-1.553086 -1.53096,-0.983368 -2.98087,-1.796313 -3.22199,-1.806536 -0.77984,-0.03307 -0.42118,-1.074814 0.70336,-2.042951 0.60257,-0.519199 2.00545,-2.178947 3.11704,-3.688863 1.1116,-1.50991 2.16669,-2.93532 2.34468,-3.16759 0.17797,-0.23228 0.17801,0.19336 4e-5,0.94587 -0.2511,1.06171 -0.19583,1.33153 0.2468,1.20455 0.96821,-0.27778 2.83306,-7.15218 1.95036,-7.18962 -0.22792,-0.01 -1.2527,1.27923 -2.27723,2.86418 -3.4532,5.34202 -6.15298,8.622299 -7.73243,9.395007 -0.46898,0.229483 -2.24002,-0.288754 -5.69076,-1.665162 -8.24363,-3.288195 -8.48183,-3.519915 -8.07752,-7.857585 0.3264,-3.50244 -0.36955,-3.77855 -2.95416,-1.17196 -5.11098,5.15457 -6.07537,5.58703 -15.3227,6.87141 -11.73508,1.629934 -17.390243,3.345392 -17.691503,5.366674 -0.13236,0.888654 0.24118,1.244319 3.011573,2.866675 3.27325,1.91683 5.42305,2.532091 11.45966,3.279691 2.75071,0.340669 3.21225,0.511799 3.47183,1.287317 0.40231,1.201987 1.48575,2.213058 3.26443,3.046377 1.54664,0.724606 1.79087,0.768141 2.6327,0.469259 z m -3.37291,-2.318273 c -1.63077,-1.091633 -1.68689,-1.819231 -0.0914,-1.18609 1.38602,0.550044 2.86127,2.116655 1.95474,2.075815 -0.31499,-0.01415 -1.15345,-0.414567 -1.86326,-0.889728 z m 4.28252,-2.281282 c -1.78212,-0.533541 -4.46133,-0.927482 -7.26721,-1.068562 -4.56439,-0.229419 -6.90171,-0.5946 -7.94885,-1.241716 -0.40707,-0.25156 -0.10657,-0.352045 0.94504,-0.315953 1.78848,0.06192 2.44864,-0.821981 1.43705,-1.922938 -0.7564,-0.82322 -4.93873,-1.068925 -6.88377,-0.404442 -0.89153,0.304598 -1.47866,0.246477 -2.54166,-0.251576 -0.76027,-0.3562 -1.376043,-0.796293 -1.368333,-0.978005 0.0495,-1.167877 5.944743,-2.875952 13.270983,-3.845103 11.90318,-1.574615 14.78229,-2.576925 17.89234,-6.228995 0.99468,-1.16807 1.92648,-2.11875 2.07065,-2.11264 0.14421,0.007 0.29486,1.10822 0.33489,2.44912 0.10996,3.68218 0.86967,4.3179 8.7742,7.342125 2.12026,0.811185 3.95078,1.645574 4.06778,1.854209 0.28756,0.512589 -1.30742,1.66416 -3.8302,2.76541 -1.82768,0.797838 -3.42583,1.188415 -9.70994,2.373046 -0.79944,0.150718 -1.8261,0.526451 -2.28144,0.834965 -0.72336,0.490147 -0.76453,0.67523 -0.32582,1.466289 0.4971,0.896369 0.48065,0.901499 -1.65542,0.517589 -1.18663,-0.213276 -3.42774,-0.768075 -4.98026,-1.232873 z m -17.18684,-3.987345 c -0.4348,-0.307873 -0.12245,-0.402739 1.16209,-0.352866 1.06869,0.04222 1.65136,0.223724 1.48757,0.465172 -0.34149,0.503538 -1.87142,0.438693 -2.64965,-0.112306 z"
       id="path826"
       inkscape:connector-curvature="0"
       sodipodi:nodetypes="cccccscsccccccscccccsscccccccccccccccccccscsccsssscccccscccccccc" />
    <path
       style="fill:#000000;stroke:none;stroke-width:1;stroke-opacity:1"
       d="m 63.604252,-107.28784 c -2.062731,0.10683 -7.081188,0.55361 -7.727603,0.79622 -1.263876,0.47437 -3.264249,2.53602 -3.232197,3.33121 0.0081,0.20101 0.260907,0.35558 0.561874,0.34344 0.300939,-0.0121 1.287059,0.66055 2.191426,1.49481 1.713607,1.580842 3.235846,4.640325 3.820569,7.678817 0.396539,2.060588 -0.145524,2.208605 -1.865936,0.509529 -0.904993,-0.893746 -1.326736,-1.082296 -1.646256,-0.735938 -0.31954,0.346353 -0.252031,0.646634 0.2635,1.172105 1.67274,1.705026 -0.234632,1.760896 -1.986109,0.05818 -2.057955,-2.000693 -2.800602,-3.660178 -2.998955,-6.701429 -0.104359,-1.600484 -0.365057,-2.805014 -0.623184,-2.879654 -0.24405,-0.0706 -1.3967,0.19086 -2.56146,0.581 -1.49732,0.50151 -2.473131,1.1486 -3.330953,2.208912 -1.147611,1.418412 -1.197138,1.629722 -0.915156,3.90353 0.164021,1.322175 0.441715,2.799585 0.617254,3.283119 0.230364,0.634612 0.160358,0.885576 -0.251759,0.902188 -0.711186,0.02865 -2.052485,-1.299527 -2.962413,-2.933487 -2.013864,-3.616272 0.308794,-9.645412 4.424191,-11.484242 1.486678,-0.66428 0.238282,-0.86047 -1.448007,-0.22759 -1.930241,0.72449 -4.761965,3.66027 -6.592054,6.834335 -1.414093,2.452528 -2.245889,3.222132 -2.290342,2.119088 -0.03955,-0.982005 3.014402,-5.550673 5.075319,-7.592493 3.108667,-3.07988 6.586027,-3.89081 9.982091,-2.32786 2.727143,1.25508 2.598435,1.79547 -0.395037,1.65878 -2.118404,-0.0967 -2.784421,0.0406 -4.255548,0.87752 -2.424097,1.37905 -4.18938,4.31166 -4.081711,6.780785 0.04365,1.009348 0.26345,2.095386 0.487661,2.413417 0.310212,0.440166 0.396922,0.277103 0.362868,-0.682623 -0.136362,-3.844522 3.060231,-6.959449 7.339517,-7.151839 1.665852,-0.0747 1.930262,-0.21385 2.426044,-1.27537 0.745254,-1.59554 2.727657,-3.17476 4.487761,-3.57501 l 1.436405,-0.32668 -0.999738,-1.35259 c -0.773447,-1.0464 -0.915809,-1.52587 -0.628945,-2.11803 0.77937,-1.60885 2.994097,-0.43852 3.908585,2.06542 0.389073,1.0653 2.056431,1.1658 3.621754,1.10271 m 3.310517,0 3.193663,-0.0693 0.414856,-1.95118 c 0.508558,-2.39198 0.82137,-2.75571 2.277629,-2.64848 1.57933,0.11628 1.813502,1.69116 0.502954,3.38249 -0.529161,0.68291 -0.957752,1.3495 -0.952441,1.48137 0.0055,0.13181 0.721606,0.21104 1.59178,0.17596 1.258739,-0.0508 1.914198,0.21278 3.206714,1.28921 0.89353,0.74412 1.747034,1.69098 1.896756,2.10406 0.224449,0.61949 0.648911,0.7358 2.421311,0.6645 1.906656,-0.0769 2.331396,0.0652 3.763701,1.25796 0.887983,0.73954 1.750295,1.86238 1.916283,2.49523 0.445483,1.698635 1.059351,1.787916 0.99312,0.14441 -0.141965,-3.52248 -2.877045,-5.5671 -7.528291,-5.6278 -0.821752,-0.0108 -0.647451,-0.97911 0.297789,-1.65439 2.487125,-1.77678 7.015835,-0.40217 10.602849,3.21844 2.581608,2.60573 4.291764,7.121085 2.721038,7.184389 -0.180626,0.0073 -0.478756,-0.64143 -0.662484,-1.441605 -0.507578,-2.210294 -1.707615,-4.076714 -3.72184,-5.788594 -2.133565,-1.81331 -3.221632,-2.38846 -5.146687,-2.72059 -1.155035,-0.19929 -1.270926,-0.16579 -0.647784,0.18723 4.526625,2.56426 4.937775,3.16951 5.107364,7.519124 0.242486,6.203214 -1.555731,9.09759 -2.115832,3.406739 -0.46804,-4.755543 -2.647516,-7.505783 -5.84593,-7.376873 -0.932652,0.0376 -0.942835,0.0888 -0.774192,3.896686 0.156896,3.558034 0.0855,4.028568 -0.92513,6.040562 -1.514302,3.014704 -4.418235,4.872135 -6.865598,4.391432 l -2.1e-5,-3.3e-5 c -1.003185,-0.197035 -0.892557,-0.524389 0.619896,-1.83423 0.737455,-0.638643 1.333917,-1.331731 1.32552,-1.540152 -0.03427,-0.849716 -1.993031,-0.210447 -3.704441,1.208954 -2.195889,1.821228 -2.665882,1.510887 -2.505365,-1.654294 0.196018,-3.865071 2.464443,-6.852111 7.290234,-9.599685 1.331477,-0.75806 2.415422,-1.52973 2.408769,-1.71481 -0.02245,-0.62516 -2.806385,-2.91955 -3.54569,-2.92222 -0.403448,-0.002 -1.283902,-0.125 -1.927905,-0.1259 -1.783633,-0.003 -3.83332,-0.23564 -5.896051,-0.12881 m 11.613446,13.828551 c 1.050475,-1.970324 1.43779,-5.237184 0.89905,-7.583201 -0.304832,-1.32746 -0.419666,-1.42443 -1.359498,-1.14787 -3.101181,0.91257 -7.368511,4.930453 -8.046317,7.575957 -0.730663,2.851773 -0.579849,3.061738 1.322566,1.841347 1.977732,-1.268701 3.401633,-1.419991 4.342125,-0.46136 0.601663,0.613293 0.617247,0.78566 0.133728,1.481334 -0.848027,1.220156 -0.653693,1.46274 0.60007,0.748981 0.631185,-0.35933 1.579914,-1.46416 2.108283,-2.455216 z m -23.570802,-1.499122 c 0.474755,-0.279251 1.078433,-0.306959 1.754731,-0.08121 1.281414,0.428974 1.298167,0.02114 0.09742,-2.372816 -0.953324,-1.90065 -3.160759,-4.233683 -3.974754,-4.200883 -0.279696,0.0112 -0.607292,0.49395 -0.72798,1.0726 -0.350918,1.682521 1.066115,6.050062 1.951345,6.014384 0.0965,-0.0042 0.501149,-0.198631 0.899209,-0.432755 z m 3.180814,-15.902779 c -0.933653,-0.86131 -1.167255,-0.36444 -0.339309,0.72175 0.46058,0.60424 0.747352,0.7394 0.845893,0.39863 0.08192,-0.28356 -0.145941,-0.78772 -0.506584,-1.12038 z m 15.08227,-0.88845 c -0.0062,-0.16324 -0.196094,-0.40055 -0.421084,-0.5274 -0.461554,-0.26019 -1.150224,1.44 -0.80101,1.97759 0.222648,0.34272 1.245422,-0.87097 1.222087,-1.45018 z"
       id="path826-3-7"
       inkscape:connector-curvature="0"
       sodipodi:nodetypes="ccssscccccccccccssccssccscccccccccccccccccssscsccscccsccsccsscccccscccccsccccccccccccccscscccccccccsc" />
  </g>
</svg>
