<?xml version="1.0" encoding="UTF-8" standalone="no"?>
<svg
   xmlns:dc="http://purl.org/dc/elements/1.1/"
   xmlns:cc="http://creativecommons.org/ns#"
   xmlns:rdf="http://www.w3.org/1999/02/22-rdf-syntax-ns#"
   xmlns:svg="http://www.w3.org/2000/svg"
   xmlns="http://www.w3.org/2000/svg"
   xmlns:sodipodi="http://sodipodi.sourceforge.net/DTD/sodipodi-0.dtd"
   xmlns:inkscape="http://www.inkscape.org/namespaces/inkscape"
   width="119.9998mm"
   height="120.00023mm"
   viewBox="0 0 119.9998 120.00023"
   version="1.1"
   id="svg8"
   inkscape:version="1.0 (4035a4fb49, 2020-05-01)"
   sodipodi:docname="knights_board.svg">
  <defs
     id="defs2" />
  <sodipodi:namedview
     inkscape:snap-global="false"
     inkscape:document-rotation="0"
     fit-margin-bottom="0"
     fit-margin-right="0"
     fit-margin-left="0"
     fit-margin-top="0"
     inkscape:window-maximized="1"
     inkscape:window-y="-8"
     inkscape:window-x="1912"
     inkscape:window-height="841"
     inkscape:window-width="1536"
     showgrid="false"
     inkscape:current-layer="layer2"
     inkscape:document-units="mm"
     inkscape:cy="165.19597"
     inkscape:cx="198.73112"
     inkscape:zoom="0.98994949"
     inkscape:pageshadow="2"
     inkscape:pageopacity="0.0"
     borderopacity="1.0"
     bordercolor="#666666"
     pagecolor="#ffffff"
     id="base" />
  <metadata
     id="metadata5">
    <rdf:RDF>
      <cc:Work
         rdf:about="">
        <dc:format>image/svg+xml</dc:format>
        <dc:type
           rdf:resource="http://purl.org/dc/dcmitype/StillImage" />
        <dc:title />
      </cc:Work>
    </rdf:RDF>
  </metadata>
  <g
     transform="translate(-12.082447,-51.159641)"
     id="layer1"
     inkscape:groupmode="layer"
     inkscape:label="Layer 1">
    <g
       transform="matrix(0.75214354,0,0,0.75214623,12.380954,51.458149)"
       inkscape:label="Grid_Polar:X6:Y6"
       id="g1319">
      <g
         inkscape:label="MajorXGridlines"
         id="g1253">
        <path
           inkscape:connector-curvature="0"
           d="M 26.458333,0 V 158.75"
           style="fill:none;stroke:#000000;stroke-width:0.26458332"
           inkscape:label="MajorXDiv1"
           id="path1243" />
        <path
           inkscape:connector-curvature="0"
           d="M 52.916667,0 V 158.75"
           style="fill:none;stroke:#000000;stroke-width:0.26458332"
           inkscape:label="MajorXDiv2"
           id="path1245" />
        <path
           inkscape:connector-curvature="0"
           d="M 79.375,0 V 158.75"
           style="fill:none;stroke:#000000;stroke-width:0.26458332"
           inkscape:label="MajorXDiv3"
           id="path1247" />
        <path
           inkscape:connector-curvature="0"
           d="M 105.83333,0 V 158.75"
           style="fill:none;stroke:#000000;stroke-width:0.26458332"
           inkscape:label="MajorXDiv4"
           id="path1249" />
        <path
           inkscape:connector-curvature="0"
           d="M 132.29167,0 V 158.75"
           style="fill:none;stroke:#000000;stroke-width:0.26458332"
           inkscape:label="MajorXDiv5"
           id="path1251" />
      </g>
      <g
         inkscape:label="MajorYGridlines"
         id="g1265">
        <path
           inkscape:connector-curvature="0"
           d="M 0,26.458333 H 158.75"
           style="fill:none;stroke:#000000;stroke-width:0.26458332"
           inkscape:label="MajorYDiv1"
           id="path1255" />
        <path
           inkscape:connector-curvature="0"
           d="M 0,52.916667 H 158.75"
           style="fill:none;stroke:#000000;stroke-width:0.26458332"
           inkscape:label="MajorYDiv2"
           id="path1257" />
        <path
           inkscape:connector-curvature="0"
           d="M 0,79.375 H 158.75"
           style="fill:none;stroke:#000000;stroke-width:0.26458332"
           inkscape:label="MajorYDiv3"
           id="path1259" />
        <path
           inkscape:connector-curvature="0"
           d="M 0,105.83333 H 158.75"
           style="fill:none;stroke:#000000;stroke-width:0.26458332"
           inkscape:label="MajorYDiv4"
           id="path1261" />
        <path
           inkscape:connector-curvature="0"
           d="M 0,132.29167 H 158.75"
           style="fill:none;stroke:#000000;stroke-width:0.26458332"
           inkscape:label="MajorYDiv5"
           id="path1263" />
      </g>
      <path
         id="rect1317"
         d="M 0,0 H 158.75 V 158.75 H 0 Z"
         style="fill:none;stroke:#000000;stroke-width:0.79374999" />
    </g>
  </g>
  <g
     inkscape:label="Layer 2"
     id="layer2"
     inkscape:groupmode="layer">
    <g
       id="text1364"
       style="font-style:normal;font-variant:normal;font-weight:normal;font-stretch:normal;font-size:19.75555611px;line-height:1.25;font-family:'Enchanted Land';-inkscape-font-specification:'Enchanted Land';letter-spacing:0px;word-spacing:0px;fill:#000000;fill-opacity:1;stroke:none;stroke-width:0.26458332"
       aria-label="I A S H K I W T N S N I S G N S R P O E A S T A H T H R E U  T T T O E S"
       transform="translate(-12.082447,-51.15964)">
      <path
         inkscape:connector-curvature="0"
         id="path866"
         style="font-style:normal;font-variant:normal;font-weight:normal;font-stretch:normal;font-size:19.75555611px;font-family:'Enchanted Land';-inkscape-font-specification:'Enchanted Land';stroke-width:0.26458332"
         d="m 22.152593,66.010571 q 0.376205,-0.366558 0.877811,-1.176844 0.299034,-0.482314 0.299034,-1.524111 0,-0.993565 -0.270096,-2.498383 -0.135047,-0.762055 -0.135047,-1.514464 0,-2.305458 1.292599,-4.572331 -1.022504,0.665593 -1.794205,0.665593 -0.868164,0 -1.427648,-0.819933 l -2.286165,1.803852 q 1.157552,0.627007 2.180056,0.627007 0.366558,0 0.713824,-0.07717 -0.733116,0.868164 -0.771701,1.9389 -0.01929,0.221864 -0.01929,0.453375 0,0.540191 0.125401,1.138259 0.173633,0.839226 0.356912,2.305458 0.106109,0.742763 0.106109,1.504818 0,0.617361 -0.06752,1.244368 -0.945334,0.03859 -2.353689,1.717036 0,-0.02894 0.501606,-0.356912 0.270096,-0.173633 0.530545,-0.173633 0.23151,0 0.443728,0.135048 -0.04823,0.01929 -0.08682,0.02894 0.04823,-0.0096 0.09646,-0.01929 0.04823,0.02894 0.09646,0.06752 0.202572,0.163987 0.434082,0.366558 l 0.192925,0.18328 q 0.09646,0.09646 0.18328,0.163986 0.279741,0.202572 0.636653,0.202572 0.15434,0 0.327973,-0.03858 0.173633,-0.02894 0.434082,-0.144694 0.183279,-0.07717 0.318327,-0.183279 l 1.562696,-1.13826 q -0.848872,0.289388 -1.321539,0.289388 -0.279742,0 -0.424436,-0.09646 l -0.733116,-0.482313 z" />
      <path
         inkscape:connector-curvature="0"
         id="path868"
         style="font-style:normal;font-variant:normal;font-weight:normal;font-stretch:normal;font-size:19.75555611px;font-family:'Enchanted Land';-inkscape-font-specification:'Enchanted Land';stroke-width:0.26458332"
         d="m 43.032634,62.103833 q 0.414789,-0.07717 0.578776,-0.443728 0.05788,-0.115756 0.07717,-0.250803 0.0096,-0.03858 0.0096,-0.07717 v -0.04823 l -0.02894,-0.09646 q -0.260449,-1.774914 -1.225076,-3.781337 l -1.813498,4.167187 q 0.231511,0.04823 1.109321,0.318327 0.72347,0.221864 1.128613,0.221864 0.08682,0 0.163987,-0.0096 z m 4.18648,4.871365 q 1.051443,1.485525 2.372982,1.852084 -0.04823,0 -1.340831,0.530544 -0.356912,0.144694 -0.694532,0.144694 -0.95498,0 -1.871376,-1.099674 -0.80064,-1.244369 -1.745974,-5.32474 -0.520899,0.366558 -1.147906,0.366558 -0.472667,0 -0.993565,-0.202571 -0.723471,-0.270096 -1.21543,-0.270096 -0.376205,0 -0.627008,0.144694 l -1.398708,2.922819 q 0.655946,0.183279 1.331185,0.627008 l -1.572342,1.167198 q -0.665593,-0.366558 -1.408355,-0.463021 -0.250803,-0.02894 -0.501606,-0.02894 -0.790994,0 -1.581988,0.318327 0.212218,-0.385851 0.617361,-0.790994 0.356912,-0.356912 0.771702,-0.578776 0.511252,-0.289388 1.061089,-0.356912 l 4.292589,-9.569097 q -0.530545,-0.347266 -1.186491,-0.347266 -0.30868,0 -0.6463,0.07717 -0.771701,0.183279 -1.75562,0.790994 l 0.01929,-0.02894 q 0.02894,-0.03859 0.08682,-0.09646 0.144695,-0.163987 0.347266,-0.366558 0.617361,-0.588423 1.263661,-1.022505 0.897103,-0.607715 1.668804,-0.771701 0.289389,-0.06752 0.549838,-0.06752 0.627007,0 1.118967,0.356912 0.897103,0.636653 1.427647,2.131825 0.183279,0.520898 1.128614,4.75561 0.945334,4.225065 1.630219,5.199338 z" />
      <path
         inkscape:connector-curvature="0"
         id="path870"
         style="font-style:normal;font-variant:normal;font-weight:normal;font-stretch:normal;font-size:19.75555611px;font-family:'Enchanted Land';-inkscape-font-specification:'Enchanted Land';stroke-width:0.26458332"
         d="m 57.998133,64.795142 -0.0096,0.0096 z m 4.919596,-6.742741 q -0.598068,-0.183279 -1.311892,-0.598069 -0.250803,-0.144694 -0.607715,-0.385851 l -0.607715,-0.395497 q -0.01929,0.183279 -0.01929,0.347266 v 0.09646 q 0.05788,1.244368 1.273307,2.228287 0.434082,0.347266 1.138259,0.762056 l 0.299035,0.163986 0.289388,0.173633 q 0.376204,0.212218 0.559483,0.318327 0.221864,0.125401 0.781348,0.453374 l 0.463021,0.279742 0.463021,0.270096 q 1.10932,0.655946 1.10932,0.665592 -0.03859,0.07717 -0.530544,0.819933 -0.559484,0.858518 -1.118967,1.67845 -1.659158,2.411567 -1.996778,2.565908 -0.337619,0.15434 -0.704177,0.15434 -0.482314,0 -1.012858,-0.260449 -0.318327,-0.154341 -0.790994,-0.472667 l -0.376205,-0.26045 q -0.221864,-0.144694 -0.376204,-0.241156 -0.675239,-0.41479 -1.389063,-0.41479 -0.80064,0.0096 -1.311892,0.56913 0.520898,-1.331185 1.427648,-1.958192 0.598068,-0.41479 1.273307,-0.41479 0.598068,0 1.254015,0.327973 0.414789,0.212218 1.061089,0.6463 l 0.501606,0.337619 q 0.299034,0.18328 0.549837,0.318327 0.144694,0.07717 0.289388,0.07717 0.463021,0 0.887457,-0.819932 0.202572,-0.395497 0.289388,-0.790994 0.04823,-0.192926 0.04823,-0.308681 0,-0.106109 -0.04823,-0.135048 -0.482313,-0.279741 -1.06109,-0.627007 l -1.022506,-0.607712 q -1.360124,-0.810286 -2.09324,-1.244368 -1.282954,-0.762055 -1.736328,-1.717036 -0.221864,-0.482313 -0.221864,-1.061089 0,-0.366559 0.08682,-0.771702 0.08682,-0.395497 0.279742,-0.906749 l 0.173633,-0.443728 0.173633,-0.434082 0.01929,-0.02894 1.967839,-1.44694 q 0.482313,0.23151 1.2926,0.762055 l 0.627007,0.405143 q 0.356912,0.221864 0.6463,0.376205 0.472667,0.250803 1.051443,0.250803 h 0.07717 q 0.49196,-0.0096 1.041797,-0.202572 0.202572,-0.07717 0.41479,-0.173633 0.163986,-0.06752 0.327973,-0.163986 0.241156,-0.125402 0.250803,-0.125402 -0.395497,0.56913 -1.080382,1.157552 -0.472667,0.395497 -1.273308,0.954981 -0.491959,0.347265 -1.070735,0.347265 -0.299035,0 -0.627008,-0.09646 z" />
      <path
         inkscape:connector-curvature="0"
         id="path872"
         style="font-style:normal;font-variant:normal;font-weight:normal;font-stretch:normal;font-size:19.75555611px;font-family:'Enchanted Land';-inkscape-font-specification:'Enchanted Land';stroke-width:0.26458332"
         d="m 84.648018,65.875524 q 0,1.147906 1.003212,1.900314 h 0.0096 l 0.0096,0.0096 1.427647,-1.06109 Q 86.403546,66.309559 86.403546,65.47998 v -3.270085 h -0.0096 l 0.0096,-5.604482 q 0,-0.366558 -0.163986,-0.684885 -0.125402,-0.260449 -0.356912,-0.482313 -0.08682,-0.07717 -0.183279,-0.15434 -0.08682,-0.06752 -0.173633,-0.115755 l -0.05788,-0.03858 -0.04823,-0.02894 -0.01929,-0.0096 -0.01929,-0.0096 h -0.0096 l -1.427647,1.06109 q 0.173633,0.09646 0.347266,0.299034 0.347265,0.395497 0.347265,0.945334 v 4.012847 q -0.366516,-0.578826 -1.350435,-0.974323 -0.472667,-0.183279 -0.877811,-0.183279 h -0.03858 l -1.52411,0.0096 V 56.69223 q 0,-1.688097 -1.726682,-1.688097 -1.389062,0 -1.823145,1.080382 1.78456,0 1.78456,1.514464 v 2.652724 H 78.91814 q -0.655946,-0.0096 -0.964626,-0.395497 -0.09646,-0.115756 -0.154341,-0.26045 -0.0096,-0.03858 -0.01929,-0.06752 0.173633,1.157552 0.87781,1.813498 0.212218,0.192925 0.424436,0.299034 v 4.417991 q -1.070736,0.08682 -1.9389,0.916395 -0.434082,0.424436 -0.655946,0.829579 0.790994,-0.318327 1.581988,-0.318327 0.250803,0 0.501606,0.02894 0.405143,0.05788 0.80064,0.192926 0.318327,0.106108 0.607715,0.270095 l 0.125401,-0.08682 h 0.0096 l 1.427647,-1.06109 -0.0096,-0.0096 0.01929,-0.0096 -0.212217,-0.125402 q -0.202572,-0.183279 -0.318327,-0.405143 -0.173633,-0.318327 -0.173633,-0.694531 v -3.742752 q 1.041797,0.01929 2.122179,0.04823 0.675239,0.04823 1.118967,0.279742 0.347266,0.173633 0.549837,0.453374 v 1.456587 h 0.0096 z M 77.779876,59.52828 q -0.0096,-0.0096 -0.0096,-0.01929 v -0.03858 q 0,0.02894 0.0096,0.05788 z" />
      <path
         inkscape:connector-curvature="0"
         id="path874"
         style="font-style:normal;font-variant:normal;font-weight:normal;font-stretch:normal;font-size:19.75555611px;font-family:'Enchanted Land';-inkscape-font-specification:'Enchanted Land';stroke-width:0.26458332"
         d="m 99.986968,60.820879 h 0.0096 q 0.665592,-0.713823 2.054662,-2.199349 0.44373,-0.472667 0.89711,-0.95498 0.14469,-0.15434 0.2701,-0.289388 0.0386,-0.04823 0.0675,-0.07717 l 0.0289,-0.02894 q 0.3762,-0.385851 0.3762,-0.704178 0,-0.02894 -0.01,-0.06752 -0.0289,-0.18328 -0.18328,-0.385851 -0.13504,-0.173633 -0.32797,-0.33762 l 1.4373,-1.070735 q 0.68489,0.704177 0.81029,1.514464 0.0289,0.173633 0.0289,0.347265 0,0.327974 -0.0965,0.655947 -0.18328,0.655946 -0.74277,1.254014 l -2.57556,2.73954 q 1.52412,1.70739 2.10289,3.366548 0.57878,1.649512 1.29261,2.556261 0.55949,0.733116 1.22508,0.733116 0.16399,0 0.33763,-0.04823 0,1.012858 -0.86817,1.273307 -0.35692,0.115755 -0.68489,0.115755 -0.49196,0 -0.92605,-0.241156 -0.74276,-0.395497 -1.2926,-1.504818 -0.53974,-1.109321 -0.62656,-1.302246 -1.63023,-3.424425 -2.594855,-3.626997 h -0.0096 v 3.048221 q 0,0.376204 0.173635,0.694531 0.11575,0.221864 0.31832,0.405143 l 0.21222,0.125402 -0.0193,0.0096 0.01,0.0096 -1.427646,1.06109 h -0.0096 l -0.125402,0.08682 q -0.289388,-0.163987 -0.607714,-0.270095 -0.395497,-0.135048 -0.800641,-0.192926 -0.250803,-0.02894 -0.501606,-0.02894 -0.790993,0 -1.581987,0.318327 0.221864,-0.405143 0.655946,-0.829579 0.868164,-0.829579 1.9389,-0.916395 V 57.59894 q 0,-1.514464 -1.78456,-1.514464 0.434082,-1.080382 1.823145,-1.080382 1.726682,0 1.726682,1.688097 z" />
      <path
         inkscape:connector-curvature="0"
         id="path876"
         style="font-style:normal;font-variant:normal;font-weight:normal;font-stretch:normal;font-size:19.75555611px;font-family:'Enchanted Land';-inkscape-font-specification:'Enchanted Land';stroke-width:0.26458332"
         d="m 122.06051,66.010571 q 0.37621,-0.366558 0.87782,-1.176844 0.29903,-0.482314 0.29903,-1.524111 0,-0.993565 -0.2701,-2.498383 -0.13504,-0.762055 -0.13504,-1.514464 0,-2.305458 1.2926,-4.572331 -1.02251,0.665593 -1.79421,0.665593 -0.86817,0 -1.42766,-0.819933 l -2.28618,1.803852 q 1.15756,0.627007 2.18007,0.627007 0.36656,0 0.71383,-0.07717 -0.73312,0.868164 -0.77171,1.9389 -0.0193,0.221864 -0.0193,0.453375 0,0.540191 0.12541,1.138259 0.17363,0.839226 0.35691,2.305458 0.10611,0.742763 0.10611,1.504818 0,0.617361 -0.0675,1.244368 -0.94534,0.03859 -2.35371,1.717036 0,-0.02894 0.50161,-0.356912 0.2701,-0.173633 0.53055,-0.173633 0.23151,0 0.44373,0.135048 -0.0482,0.01929 -0.0868,0.02894 0.0482,-0.0096 0.0965,-0.01929 0.0482,0.02894 0.0965,0.06752 0.20258,0.163987 0.43409,0.366558 l 0.19292,0.18328 q 0.0965,0.09646 0.18329,0.163986 0.27974,0.202572 0.63665,0.202572 0.15434,0 0.32798,-0.03858 0.17363,-0.02894 0.43408,-0.144694 0.18328,-0.07717 0.31833,-0.183279 l 1.5627,-1.13826 q -0.84887,0.289388 -1.32154,0.289388 -0.27975,0 -0.42444,-0.09646 l -0.73314,-0.482313 z" />
      <path
         inkscape:connector-curvature="0"
         id="path878"
         style="font-style:normal;font-variant:normal;font-weight:normal;font-stretch:normal;font-size:19.75555611px;font-family:'Enchanted Land';-inkscape-font-specification:'Enchanted Land';stroke-width:0.26458332"
         d="m 26.85997,77.876856 q 0,-0.530545 -0.33762,-0.916395 -0.183279,-0.202572 -0.356912,-0.299035 l 1.437294,-1.061089 h 0.0096 l 0.0096,0.0096 0.01929,0.0096 0.04823,0.02894 0.06752,0.03858 q 0.08682,0.04823 0.163987,0.115756 0.106109,0.07717 0.192925,0.15434 0.221865,0.221864 0.356912,0.482313 0.154341,0.318327 0.154341,0.684885 v 8.816689 q 0,0.829579 0.684885,1.244368 l -1.427648,1.06109 -0.0096,-0.0096 h -0.0096 Q 27.023949,87.60989 26.888901,86.703141 l -0.02894,0.0096 v -0.906749 q -3.530534,2.903527 -3.636643,2.903527 -1.639866,-0.868164 -2.305458,-2.315105 -2.961404,2.315105 -3.067513,2.315105 -0.887457,-0.530545 -1.504818,-1.2926 -0.906749,-1.118967 -1.099675,-2.893881 -0.03859,-0.38585 -0.03859,-0.762055 0,-1.736328 0.916396,-3.115744 1.118967,-1.668804 1.225076,-1.86173 0.270095,-0.501606 0.270095,-0.95498 V 77.72242 q -0.02894,-0.318327 -0.202571,-0.530545 -0.173633,-0.212218 -0.443729,-0.212218 h -0.01929 q -0.405144,0.0096 -0.636654,0.289388 -0.163986,0.192926 -0.163986,0.434082 0,0.144694 0.05788,0.299035 l -0.0096,-0.0096 q -0.01929,-0.01929 -0.03859,-0.03858 -0.05788,-0.05788 -0.115755,-0.125401 -0.07717,-0.106109 -0.135048,-0.202572 -0.06752,-0.125401 -0.106109,-0.241157 -0.106109,-0.318326 -0.106109,-0.588422 0,-0.376204 0.192925,-0.684885 0.318327,-0.530545 1.099675,-0.675239 0.163986,-0.02894 0.30868,-0.02894 0.395497,0 0.704178,0.183279 0.549837,0.327973 1.659158,1.215429 l -0.434082,0.559484 q -0.434082,0.549837 -0.916396,1.581988 -0.974273,1.842437 -1.090028,2.758832 -0.04823,0.41479 -0.04823,0.810287 0,1.041797 0.327973,1.958192 0.501606,1.437294 1.745974,2.382628 l 1.427648,-1.061089 q -0.270095,-0.829579 -0.270095,-1.726682 0,-0.49196 0.08682,-1.012858 0.250803,-1.649512 1.109321,-2.971051 0.463021,-0.72347 0.964626,-1.215429 0.04823,-0.04823 0.04823,-0.115756 0,-0.212217 -0.405143,-0.675238 -0.192926,-0.212218 -0.463021,-0.482314 -0.106109,-0.09646 -0.212218,-0.202571 l -0.09646,-0.08682 q -0.02894,-0.02894 -0.07717,-0.06752 l 1.958192,-1.456586 q 0.289388,0.270096 0.72347,0.897103 0.385851,0.559483 0.385851,0.742763 0,0.03858 -0.01929,0.05788 -0.56913,0.607715 -0.945335,1.234722 -0.87781,1.466233 -1.061089,2.990343 -0.04823,0.424436 -0.04823,0.819933 0,1.032151 0.318326,1.948546 0.511253,1.437294 1.745975,2.382628 l 2.440506,-1.832791 z" />
      <path
         inkscape:connector-curvature="0"
         id="path880"
         style="font-style:normal;font-variant:normal;font-weight:normal;font-stretch:normal;font-size:19.75555611px;font-family:'Enchanted Land';-inkscape-font-specification:'Enchanted Land';stroke-width:0.26458332"
         d="m 42.513111,77.654992 q -1.234722,-0.15434 -2.363335,-0.868164 -1.128614,-0.72347 -1.745975,-2.208995 0.05788,0.135047 0.819933,0.520898 0.762055,0.376204 1.823145,0.511252 0.395497,0.05788 2.411567,0.135048 2.016069,0.06752 2.999989,0.530545 0.964627,0.472667 1.726682,2.372981 -0.704178,-0.636653 -3.781337,-0.897102 h -0.289388 q -0.09646,0.540191 -0.09646,1.292599 0,1.485526 0.376204,3.829569 0.06752,0.453374 0.06752,0.868164 0,2.884234 -3.395486,4.350467 0.308681,-0.08682 0.588422,-0.453375 0.241157,-0.308681 0.356912,-0.762055 0.08682,-0.810287 0.08682,-1.581988 0,-0.848872 -0.09646,-1.659158 -0.192925,-1.562695 -0.327973,-2.903527 -0.01929,-0.163986 -0.01929,-0.337619 0,-1.21543 0.858518,-2.73954 z" />
      <path
         inkscape:connector-curvature="0"
         id="path882"
         style="font-style:normal;font-variant:normal;font-weight:normal;font-stretch:normal;font-size:19.75555611px;font-family:'Enchanted Land';-inkscape-font-specification:'Enchanted Land';stroke-width:0.26458332"
         d="m 66.665992,86.124415 q 0,0.549837 0.356912,0.945334 0.173633,0.202572 0.347265,0.299034 l -1.437293,1.06109 -0.01929,-0.0096 -0.02894,-0.01929 -0.02894,-0.01929 -0.02894,0.0096 h -0.01929 q -0.78135,-0.11576 -1.456588,-0.848877 -0.434082,-0.482313 -0.98392,-1.437294 -0.935688,-1.67845 -2.874587,-5.884223 v 5.807053 q 0,0.829579 0.694531,1.244369 l -1.427648,1.061089 -0.0096,-0.0096 h -0.0096 q -1.012858,-0.752409 -1.012858,-1.900315 l 0.0096,-8.189681 q 0,-0.733116 -0.299034,-1.109321 -0.299035,-0.395497 -0.839226,-0.395497 -0.453374,0 -0.829579,0.395497 v -0.02894 q 0,-0.366558 0.202572,-0.72347 0.183279,-0.327973 0.501606,-0.511252 0.395497,-0.23151 0.983919,-0.23151 1.803852,0.03859 2.247581,1.437294 l 4.205772,8.614117 v -7.813477 q 0,-0.530545 -0.347265,-0.945334 -0.173633,-0.202572 -0.347266,-0.289388 l 1.427648,-1.070736 0.0096,0.0096 0.01929,0.0096 0.01929,0.0096 0.04823,0.01929 0.05788,0.03858 0.173633,0.115755 q 0.07717,0.06752 0.183279,0.163987 0.241156,0.221864 0.356912,0.472667 0.163986,0.318327 0.163986,0.684885 z" />
      <path
         inkscape:connector-curvature="0"
         id="path884"
         style="font-style:normal;font-variant:normal;font-weight:normal;font-stretch:normal;font-size:19.75555611px;font-family:'Enchanted Land';-inkscape-font-specification:'Enchanted Land';stroke-width:0.26458332"
         d="m 77.825352,85.256251 -0.0096,0.0096 z M 82.744948,78.51351 Q 82.14688,78.330231 81.433056,77.915441 81.182253,77.770747 80.825341,77.52959 l -0.607715,-0.395497 q -0.01929,0.18328 -0.01929,0.347266 v 0.09646 q 0.05788,1.244368 1.273307,2.228288 0.434082,0.347265 1.138259,0.762055 l 0.299035,0.163986 0.289388,0.173633 q 0.376204,0.212218 0.559483,0.318327 0.221864,0.125401 0.781348,0.453375 l 0.463021,0.279741 0.463021,0.270096 q 1.10932,0.655946 1.10932,0.665592 -0.03858,0.07717 -0.530544,0.819933 -0.559484,0.858518 -1.118967,1.678451 -1.659158,2.411566 -1.996778,2.565907 -0.337619,0.15434 -0.704177,0.15434 -0.482314,0 -1.012858,-0.260449 -0.318327,-0.15434 -0.790994,-0.472667 l -0.376205,-0.26045 q -0.221864,-0.144694 -0.376204,-0.241156 -0.675239,-0.41479 -1.389063,-0.41479 -0.80064,0.0096 -1.311892,0.56913 0.520898,-1.331185 1.427648,-1.958192 0.598068,-0.41479 1.273307,-0.41479 0.598068,0 1.254015,0.327973 0.414789,0.212218 1.061089,0.6463 l 0.501606,0.33762 q 0.299034,0.183279 0.549837,0.318326 0.144694,0.07717 0.289388,0.07717 0.463021,0 0.887457,-0.819933 0.202572,-0.395497 0.289388,-0.790994 0.04823,-0.192925 0.04823,-0.308681 0,-0.106109 -0.04823,-0.135047 -0.482313,-0.279742 -1.06109,-0.627008 L 82.416977,83.07619 q -1.360124,-0.810286 -2.09324,-1.244368 -1.282954,-0.762055 -1.736328,-1.717036 -0.221864,-0.482313 -0.221864,-1.061089 0,-0.366558 0.08682,-0.771702 0.08682,-0.395497 0.279742,-0.906749 l 0.173633,-0.443728 0.173633,-0.434082 0.01929,-0.02894 1.967839,-1.44694 q 0.482313,0.23151 1.2926,0.762055 l 0.627007,0.405143 q 0.356912,0.221864 0.6463,0.376205 0.472667,0.250803 1.051443,0.250803 h 0.07717 q 0.49196,-0.0096 1.041797,-0.202572 0.202572,-0.07717 0.41479,-0.173633 0.163986,-0.06752 0.327973,-0.163986 0.241156,-0.125402 0.250803,-0.125402 -0.395497,0.56913 -1.080382,1.157552 -0.472667,0.395497 -1.273308,0.954981 -0.491959,0.347265 -1.070735,0.347265 -0.299035,0 -0.627008,-0.09646 z" />
      <path
         inkscape:connector-curvature="0"
         id="path886"
         style="font-style:normal;font-variant:normal;font-weight:normal;font-stretch:normal;font-size:19.75555611px;font-family:'Enchanted Land';-inkscape-font-specification:'Enchanted Land';stroke-width:0.26458332"
         d="m 105.79681,86.124415 q 0,0.549837 0.35691,0.945334 0.17363,0.202572 0.34727,0.299034 l -1.4373,1.06109 -0.0193,-0.0096 -0.0289,-0.01929 -0.0289,-0.01929 -0.0289,0.0096 h -0.0193 q -0.78136,-0.11576 -1.4566,-0.848877 -0.43408,-0.482313 -0.98392,-1.437294 -0.9357,-1.67845 -2.874604,-5.884223 v 5.807053 q 0,0.829579 0.694534,1.244369 l -1.42765,1.061089 -0.0096,-0.0096 h -0.0096 q -1.012858,-0.752409 -1.012858,-1.900315 l 0.0096,-8.189681 q 0,-0.733116 -0.299034,-1.109321 -0.299034,-0.395497 -0.839225,-0.395497 -0.453375,0 -0.829579,0.395497 v -0.02894 q 0,-0.366558 0.202571,-0.72347 0.183279,-0.327973 0.501606,-0.511252 0.395497,-0.23151 0.983919,-0.23151 1.803852,0.03859 2.247581,1.437294 l 4.205789,8.614117 v -7.813477 q 0,-0.530545 -0.34726,-0.945334 -0.17364,-0.202572 -0.34727,-0.289388 l 1.42766,-1.070736 0.01,0.0096 0.0193,0.0096 0.0193,0.0096 0.0482,0.01929 0.0579,0.03858 0.17363,0.115755 q 0.0772,0.06752 0.18328,0.163987 0.24116,0.221864 0.35691,0.472667 0.16399,0.318327 0.16399,0.684885 z" />
      <path
         inkscape:connector-curvature="0"
         id="path888"
         style="font-style:normal;font-variant:normal;font-weight:normal;font-stretch:normal;font-size:19.75555611px;font-family:'Enchanted Land';-inkscape-font-specification:'Enchanted Land';stroke-width:0.26458332"
         d="m 121.50378,86.471681 q 0.37621,-0.366559 0.87782,-1.176845 0.29903,-0.482313 0.29903,-1.52411 0,-0.993566 -0.27009,-2.498384 -0.13505,-0.762055 -0.13505,-1.514464 0,-2.305458 1.2926,-4.572331 -1.02251,0.665593 -1.79421,0.665593 -0.86817,0 -1.42766,-0.819933 l -2.28617,1.803852 q 1.15755,0.627008 2.18006,0.627008 0.36656,0 0.71383,-0.07717 -0.73312,0.868165 -0.7717,1.9389 -0.0193,0.221864 -0.0193,0.453375 0,0.540191 0.1254,1.138259 0.17363,0.839226 0.35691,2.305458 0.10611,0.742763 0.10611,1.504818 0,0.617361 -0.0675,1.244369 -0.94534,0.03858 -2.3537,1.717035 0,-0.02894 0.50161,-0.356912 0.27009,-0.173632 0.53054,-0.173632 0.23152,0 0.44374,0.135047 -0.0482,0.01929 -0.0868,0.02894 0.0482,-0.0096 0.0965,-0.01929 0.0482,0.02894 0.0965,0.06752 0.20257,0.163987 0.43408,0.366559 l 0.19293,0.183279 q 0.0965,0.09646 0.18328,0.163986 0.27974,0.202572 0.63665,0.202572 0.15434,0 0.32798,-0.03858 0.17363,-0.02894 0.43408,-0.144694 0.18328,-0.07717 0.31833,-0.183279 l 1.56271,-1.13826 q -0.84888,0.289388 -1.32155,0.289388 -0.27974,0 -0.42444,-0.09646 l -0.73312,-0.482313 z" />
      <path
         inkscape:connector-curvature="0"
         id="path890"
         style="font-style:normal;font-variant:normal;font-weight:normal;font-stretch:normal;font-size:19.75555611px;font-family:'Enchanted Land';-inkscape-font-specification:'Enchanted Land';stroke-width:0.26458332"
         d="m 18.509059,105.18815 -0.0096,0.01 z m 4.919597,-6.742731 q -0.598069,-0.183277 -1.311892,-0.598064 -0.250803,-0.14469 -0.607715,-0.38585 l -0.607715,-0.395487 q -0.01929,0.18328 -0.01929,0.347257 v 0.0965 q 0.05788,1.244364 1.273308,2.228278 0.434082,0.347267 1.138259,0.762057 l 0.299035,0.16398 0.289388,0.17364 q 0.376204,0.21222 0.559483,0.31832 0.221864,0.12541 0.781348,0.45338 l 0.463021,0.27974 0.46302,0.2701 q 1.109321,0.65594 1.109321,0.66559 -0.03859,0.0772 -0.530545,0.81993 -0.559483,0.85852 -1.118967,1.67845 -1.659158,2.41157 -1.996777,2.56591 -0.337619,0.15434 -0.704177,0.15434 -0.482314,0 -1.012859,-0.26045 -0.318326,-0.15434 -0.790994,-0.47267 l -0.376204,-0.26045 q -0.221864,-0.14469 -0.376204,-0.24115 -0.675239,-0.41479 -1.389063,-0.41479 -0.80064,0.01 -1.311892,0.56913 0.520898,-1.33119 1.427647,-1.9582 0.598069,-0.41478 1.273308,-0.41478 0.598068,0 1.254014,0.32797 0.41479,0.21222 1.06109,0.6463 l 0.501606,0.33762 q 0.299034,0.18328 0.549837,0.31832 0.144694,0.0772 0.289388,0.0772 0.463021,0 0.887457,-0.81993 0.202571,-0.39549 0.289388,-0.79099 0.04823,-0.19293 0.04823,-0.30868 0,-0.10611 -0.04823,-0.13505 -0.482314,-0.27974 -1.06109,-0.62701 l -1.022504,-0.60771 q -1.360124,-0.81029 -2.09324,-1.24437 -1.282954,-0.76206 -1.736328,-1.71704 -0.221865,-0.482307 -0.221865,-1.061084 0,-0.366547 0.08682,-0.771694 0.08682,-0.395487 0.279742,-0.906744 l 0.173632,-0.44373 0.173633,-0.434077 0.01929,-0.0289 1.967838,-1.446931 q 0.482314,0.23151 1.2926,0.762057 l 0.627008,0.405137 q 0.356912,0.221867 0.6463,0.376207 0.472667,0.2508 1.051443,0.2508 h 0.07717 q 0.49196,-0.01 1.041797,-0.20257 0.202571,-0.0772 0.414789,-0.17363 0.163987,-0.0675 0.327973,-0.163987 0.241157,-0.1254 0.250803,-0.1254 -0.395497,0.569127 -1.080382,1.157544 -0.472667,0.395497 -1.273307,0.954974 -0.49196,0.347267 -1.070736,0.347267 -0.299034,0 -0.627007,-0.0965 z" />
      <path
         inkscape:connector-curvature="0"
         id="path892"
         style="font-style:normal;font-variant:normal;font-weight:normal;font-stretch:normal;font-size:19.75555611px;font-family:'Enchanted Land';-inkscape-font-specification:'Enchanted Land';stroke-width:0.26458332"
         d="m 46.171804,101.74444 0.655946,0.59807 q 0.463021,0.46302 0.463021,0.67523 v 2.44051 l -3.800629,2.86494 q -0.06752,0 -0.72347,-0.2508 -0.684885,-0.2508 -0.868164,-0.33762 -3.125391,-1.53376 -3.945324,-4.17684 -0.270095,-0.87781 -0.270095,-1.6688 0,-0.20257 0.01929,-0.3955 0.08682,-0.96462 0.636654,-1.996767 0.482313,-0.916394 1.591634,-1.967828 0.395497,-0.366557 1.504818,-1.128614 1.118967,-0.762044 1.639865,-0.810274 0.07717,-0.01 0.154341,-0.01 0.482313,0 1.012858,0.250797 0.241156,0.10611 1.128613,0.636657 0.627007,0.376197 1.012858,0.376197 0.163987,0 0.289388,-0.0675 l -0.04823,0.636647 q -0.192926,1.157544 -0.974273,1.157544 -0.250803,0 -0.559484,-0.11575 -0.212218,-0.0868 -0.858518,-0.491957 -0.6463,-0.414787 -1.012858,-0.511247 -0.395497,-0.10611 -0.810286,-0.10611 -0.6463,0 -1.340831,0.26045 -0.559484,0.20257 -0.98392,0.675237 -0.405143,0.472657 -0.56913,1.070724 -0.163986,0.636657 -0.163986,1.234714 0,0.41479 0.07717,0.81029 0.183279,0.87781 0.819933,1.90996 1.340831,2.15112 4.350467,3.27973 l 1.090028,-0.81028 v -1.37942 q 0,-0.21222 -0.33762,-0.54019 -0.327973,-0.32797 -0.87781,-0.81993 z" />
      <path
         inkscape:connector-curvature="0"
         id="path894"
         style="font-style:normal;font-variant:normal;font-weight:normal;font-stretch:normal;font-size:19.75555611px;font-family:'Enchanted Land';-inkscape-font-specification:'Enchanted Land';stroke-width:0.26458332"
         d="m 66.820333,106.05632 q 0,0.54984 0.356912,0.94533 0.173633,0.20257 0.347266,0.29904 l -1.437294,1.06109 -0.01929,-0.01 -0.02894,-0.0193 -0.02894,-0.0193 -0.02894,0.01 h -0.01929 q -0.781348,-0.11575 -1.456587,-0.84887 -0.434082,-0.48231 -0.983919,-1.43729 -0.935688,-1.67846 -2.874588,-5.88423 v 5.80706 q 0,0.82957 0.694531,1.24436 l -1.427647,1.06109 -0.0096,-0.01 h -0.0096 q -1.012858,-0.75241 -1.012858,-1.90032 l 0.0096,-8.189668 q 0,-0.733117 -0.299034,-1.109314 -0.299034,-0.395497 -0.839225,-0.395497 -0.453375,0 -0.829579,0.395497 v -0.0289 q 0,-0.366557 0.202571,-0.723467 0.183279,-0.327967 0.501606,-0.511247 0.395497,-0.231507 0.98392,-0.231507 1.803852,0.0386 2.24758,1.437281 l 4.205773,8.614102 v -7.813465 q 0,-0.530537 -0.347266,-0.945327 -0.173633,-0.202567 -0.347266,-0.289387 l 1.427648,-1.070734 0.0096,0.01 0.01929,0.01 0.01929,0.01 0.04823,0.0193 0.05788,0.0386 0.173633,0.11576 q 0.07717,0.0675 0.183279,0.163977 0.241157,0.22187 0.356912,0.472667 0.163987,0.31833 0.163987,0.684887 z" />
      <path
         inkscape:connector-curvature="0"
         id="path896"
         style="font-style:normal;font-variant:normal;font-weight:normal;font-stretch:normal;font-size:19.75555611px;font-family:'Enchanted Land';-inkscape-font-specification:'Enchanted Land';stroke-width:0.26458332"
         d="m 77.979693,105.18815 -0.0096,0.01 z m 4.919597,-6.742731 q -0.598069,-0.183277 -1.311893,-0.598064 -0.250803,-0.14469 -0.607715,-0.38585 l -0.607714,-0.395487 q -0.01929,0.18328 -0.01929,0.347257 v 0.0965 q 0.05788,1.244364 1.273307,2.228278 0.434082,0.347267 1.13826,0.762057 l 0.299034,0.16398 0.289388,0.17364 q 0.376205,0.21222 0.559484,0.31832 0.221864,0.12541 0.781347,0.45338 l 0.463021,0.27974 0.463021,0.2701 q 1.109321,0.65594 1.109321,0.66559 -0.03858,0.0772 -0.530545,0.81993 -0.559483,0.85852 -1.118967,1.67845 -1.659158,2.41157 -1.996777,2.56591 -0.33762,0.15434 -0.704178,0.15434 -0.482313,0 -1.012858,-0.26045 -0.318327,-0.15434 -0.790994,-0.47267 l -0.376204,-0.26045 q -0.221864,-0.14469 -0.376205,-0.24115 -0.675238,-0.41479 -1.389062,-0.41479 -0.80064,0.01 -1.311893,0.56913 0.520899,-1.33119 1.427648,-1.9582 0.598069,-0.41478 1.273307,-0.41478 0.598069,0 1.254015,0.32797 0.41479,0.21222 1.061089,0.6463 l 0.501606,0.33762 q 0.299035,0.18328 0.549838,0.31832 0.144694,0.0772 0.289388,0.0772 0.463021,0 0.887456,-0.81993 0.202572,-0.39549 0.289388,-0.79099 0.04823,-0.19293 0.04823,-0.30868 0,-0.10611 -0.04823,-0.13505 -0.482313,-0.27974 -1.061089,-0.62701 l -1.022504,-0.60771 q -1.360124,-0.81029 -2.093241,-1.24437 -1.282953,-0.76206 -1.736328,-1.71704 -0.221864,-0.482307 -0.221864,-1.061084 0,-0.366547 0.08682,-0.771694 0.08682,-0.395487 0.279741,-0.906744 l 0.173633,-0.44373 0.173633,-0.434077 0.01929,-0.0289 1.967839,-1.446931 q 0.482313,0.23151 1.2926,0.762057 l 0.627007,0.405137 q 0.356912,0.221867 0.6463,0.376207 0.472667,0.2508 1.051443,0.2508 h 0.07717 q 0.491959,-0.01 1.041796,-0.20257 0.202572,-0.0772 0.41479,-0.17363 0.163987,-0.0675 0.327973,-0.163987 0.241157,-0.1254 0.250803,-0.1254 -0.395497,0.569127 -1.080382,1.157544 -0.472667,0.395497 -1.273307,0.954974 -0.49196,0.347267 -1.070736,0.347267 -0.299034,0 -0.627007,-0.0965 z" />
      <path
         inkscape:connector-curvature="0"
         id="path898"
         style="font-style:normal;font-variant:normal;font-weight:normal;font-stretch:normal;font-size:19.75555611px;font-family:'Enchanted Land';-inkscape-font-specification:'Enchanted Land';stroke-width:0.26458332"
         d="m 103.7697,103.6351 q -1.09968,-0.61736 -2.32476,-0.66559 l -0.0386,-0.5016 q -0.0772,-1.32154 -0.0772,-2.31511 0,-2.064288 0.34727,-2.720235 l 0.76206,0.10611 q 1.0418,0.15434 1.73633,0.868167 0.62702,0.655934 0.82959,1.630208 0.0772,0.38585 0.0772,0.7717 0,0.54984 -0.16399,1.09967 -0.27974,0.96463 -1.14791,1.72668 z m 0.57878,0.37621 q 1.41801,-1.1672 1.84245,-1.74598 0.70418,-0.96462 0.70418,-2.324747 v -0.0772 q -0.0193,-1.389054 -0.84887,-2.411548 -0.791,-0.983914 -2.16078,-1.437291 -0.68489,-0.23151 -1.67846,-0.356907 -4.176846,-0.15434 -5.035364,-0.665587 -0.848871,-0.511247 -0.906749,-0.646297 l 0.954981,1.437281 q 0.482313,0.50161 1.128613,0.858517 0.723465,0.405137 1.331182,0.520897 l 1.205787,0.16399 q -1.254017,0.916384 -1.446944,2.247565 -0.13504,0.897097 -0.13504,1.514457 0,0.30868 0.0289,0.54984 l 0.144687,1.55305 q -1.639862,0.45337 -2.546611,1.40835 1.225076,-0.27974 2.372984,-0.27974 h 0.279737 l 0.1447,1.53376 q 0.0193,0.24115 0.0193,0.45337 0,0.84887 -0.327977,1.35048 -0.21222,0.31833 -0.44373,0.3955 0.858517,-0.12541 1.379414,-0.68489 0.31833,-0.33762 0.76206,-1.24437 0.31833,-0.63665 0.37621,-1.52411 1.73634,0.7717 2.46946,2.42121 0.74276,1.63987 1.39872,1.98714 0.38585,0.21221 0.81993,0.21221 0.28939,0 0.59807,-0.0965 0.77171,-0.23151 0.8103,-1.46623 -0.2894,0.18328 -0.5402,0.18328 -0.67524,0 -1.10932,-1.2926 -0.60772,-1.76527 -1.59165,-2.53697 z" />
      <path
         inkscape:connector-curvature="0"
         id="path900"
         style="font-style:normal;font-variant:normal;font-weight:normal;font-stretch:normal;font-size:19.75555611px;font-family:'Enchanted Land';-inkscape-font-specification:'Enchanted Land';stroke-width:0.26458332"
         d="m 123.32694,103.49041 q 0.71382,-0.61736 0.99356,-1.58199 0.16399,-0.54983 0.16399,-1.09967 0,-0.38585 -0.0772,-0.7717 -0.20257,-0.974274 -0.82958,-1.630208 -0.69454,-0.713827 -1.73634,-0.868167 l -0.76206,-0.10611 q -0.44373,0.839227 -0.44373,2.324748 0,0.24115 0.01,0.511247 l 0.0772,1.09967 0.0868,1.09968 0.0386,0.5016 q 1.22508,0.0482 2.47911,0.5209 z m -0.0386,-7.475836 q 1.36977,0.453377 2.16077,1.437291 0.82958,1.022494 0.84888,2.411548 v 0.0772 q 0,1.360127 -0.70418,2.324747 -0.43409,0.58843 -1.88104,1.78456 -0.0193,0.0193 -0.2508,0.22187 -0.1254,0.11575 -0.21222,0.19292 l -0.24116,0.21222 q -0.60772,0.5209 -0.66559,0.5209 h -0.01 q -0.50161,-0.33762 -1.43731,-0.59807 -0.0579,0.88746 -0.37621,1.52411 -0.44373,0.90675 -0.76205,1.24437 -0.5209,0.55948 -1.37943,0.68489 0.23151,-0.0772 0.44373,-0.3955 0.32798,-0.50161 0.32798,-1.35048 0,-0.21222 -0.0193,-0.45337 l -0.1447,-1.53376 h -0.27974 q -1.14791,0 -2.373,0.27974 0.90676,-0.95498 2.54663,-1.40835 l -0.14429,-1.55305 q -0.0386,-0.28939 -0.0386,-0.61736 0,-0.48232 0.0868,-1.022507 0.13505,-0.800637 0.44373,-1.417994 0.3955,-0.781344 1.0611,-1.254001 l -1.20579,-0.16399 q -0.60772,-0.11576 -1.3312,-0.520897 -0.6463,-0.356907 -1.12862,-0.858517 -0.61736,-0.617354 -0.95498,-1.437281 0.0579,0.13505 0.36656,0.29903 0.0965,0.0482 0.2508,0.115757 l 0.10611,0.0482 q 0.0579,0.0289 0.0772,0.0386 0.60772,0.30868 1.68811,0.453367 0.35691,0.0579 0.9164,0.10611 l 0.43408,0.0386 q 0.24116,0.0289 0.40515,0.0386 l 0.42444,0.0482 0.42444,0.0386 q 0.54019,0.0482 0.84887,0.0868 0.99357,0.125397 1.67846,0.356907 z" />
      <path
         inkscape:connector-curvature="0"
         id="path902"
         style="font-style:normal;font-variant:normal;font-weight:normal;font-stretch:normal;font-size:19.75555611px;font-family:'Enchanted Land';-inkscape-font-specification:'Enchanted Land';stroke-width:0.26458332"
         d="m 26.487901,122.97033 q 0.125401,-0.59807 0.125401,-1.15756 0,-1.09967 -0.482313,-2.0643 -0.897103,-1.80385 -3.192915,-2.88423 -0.212218,-0.0965 -0.627007,-0.17363 -0.173633,-0.0193 -0.356912,-0.0193 -0.6463,0 -1.331185,0.25081 -0.56913,0.20257 -0.983919,0.67524 -0.405144,0.46302 -0.56913,1.06108 -0.163987,0.62701 -0.163987,1.21543 0,0.40515 0.07717,0.791 0.183279,0.87781 0.819933,1.89067 1.340831,2.12218 4.350467,3.24114 2.073947,-1.62057 2.334397,-2.82635 z m 1.67845,-4.22507 q 0.318327,0.86816 0.337619,1.75562 v 0.10611 q 0,0.87781 -0.299034,1.65916 -0.80064,2.21864 -5.054644,5.52731 -0.06752,0 -0.733116,-0.2508 -0.713824,-0.26045 -0.897103,-0.34727 -1.466233,-0.70418 -2.479091,-1.71703 -1.13826,-1.12862 -1.572342,-2.50803 -0.279741,-0.90675 -0.279741,-1.70739 0,-0.20257 0.01929,-0.3955 0.09646,-0.96463 0.655946,-2.01607 0.49196,-0.92604 1.639866,-1.99678 0.405143,-0.3762 1.418001,-1.08038 1.022504,-0.71382 1.254015,-0.7717 0.04823,-0.01 0.135048,-0.01 0.347265,0 1.311892,0.16399 1.21543,0.21222 2.353689,0.96463 1.610927,1.06109 2.189703,2.62378 z" />
      <path
         inkscape:connector-curvature="0"
         id="path904"
         style="font-style:normal;font-variant:normal;font-weight:normal;font-stretch:normal;font-size:19.75555611px;font-family:'Enchanted Land';-inkscape-font-specification:'Enchanted Land';stroke-width:0.26458332"
         d="m 42.971998,121.95747 0.01929,0.24115 q 0.03859,0.41479 0.03859,1.20579 v 0.33762 q -0.05788,0.87781 -0.839226,1.45658 0.530545,-0.0772 1.109321,-0.0772 1.745974,0 3.887446,0.75241 -1.958192,1.66881 -2.025716,1.66881 -1.948546,-0.74277 -4.302236,-0.74277 -1.263661,0 -2.633431,0.21222 1.003212,-1.05144 2.797418,-1.65916 0.07717,-0.29903 0.07717,-0.57877 0,-0.15434 -0.01929,-0.29904 l -0.434082,-3.90673 q -0.03859,-0.26045 -0.03859,-0.54984 0,-0.42444 0.08682,-0.9164 0.125401,-0.71382 0.443728,-1.28295 0.385851,-0.71382 1.051443,-1.15755 L 40.975224,116.488 q -0.607715,-0.1061 -1.70739,-0.71382 -1.090028,-0.60771 -1.707389,-2.09324 0.05788,0.13505 0.819933,0.5209 0.762055,0.3762 1.823144,0.51125 0.41479,0.0579 2.421213,0.13505 2.01607,0.0675 2.980697,0.53054 0.974273,0.46302 1.736328,2.37299 -0.704177,-0.63666 -4.196126,-0.95499 -0.41479,0.75241 -0.41479,2.03537 0,0.23151 0.0096,0.47266 l 0.08682,1.01286 0.01929,0.25081 0.395497,0.0772 q 0.790994,0.17363 1.176845,0.17363 0.09646,0 0.173633,-0.01 0.482313,-0.0675 0.655946,-0.44373 0.09646,-0.19292 0.09646,-0.36655 0.405143,0.49196 0.405143,0.93568 0,0.33762 -0.241157,0.6463 -0.463021,0.57878 -1.176844,0.57878 -0.163987,0 -0.347266,-0.0289 -0.810286,-0.1254 -1.012858,-0.17363 z" />
      <path
         inkscape:connector-curvature="0"
         id="path906"
         style="font-style:normal;font-variant:normal;font-weight:normal;font-stretch:normal;font-size:19.75555611px;font-family:'Enchanted Land';-inkscape-font-specification:'Enchanted Land';stroke-width:0.26458332"
         d="m 62.567706,121.89959 q 0.414789,-0.0772 0.578776,-0.44373 0.05788,-0.11575 0.07717,-0.2508 0.0096,-0.0386 0.0096,-0.0772 v -0.0482 l -0.02894,-0.0965 q -0.260449,-1.77491 -1.225076,-3.78133 l -1.813498,4.16719 q 0.23151,0.0482 1.109321,0.31832 0.72347,0.22187 1.128613,0.22187 0.08682,0 0.163987,-0.01 z m 4.18648,4.87137 q 1.051443,1.48552 2.372982,1.85208 -0.04823,0 -1.340832,0.53054 -0.356912,0.1447 -0.694531,0.1447 -0.95498,0 -1.871376,-1.09968 -0.80064,-1.24437 -1.745974,-5.32474 -0.520899,0.36656 -1.147906,0.36656 -0.472667,0 -0.993566,-0.20257 -0.72347,-0.2701 -1.215429,-0.2701 -0.376205,0 -0.627008,0.1447 l -1.398709,2.92282 q 0.655947,0.18328 1.331185,0.62701 l -1.572341,1.16719 q -0.665593,-0.36655 -1.408355,-0.46302 -0.250803,-0.0289 -0.501606,-0.0289 -0.790994,0 -1.581988,0.31833 0.212218,-0.38585 0.617361,-0.79099 0.356912,-0.35692 0.771701,-0.57878 0.511253,-0.28939 1.06109,-0.35691 l 4.292589,-9.5691 q -0.530545,-0.34726 -1.186491,-0.34726 -0.308681,0 -0.6463,0.0772 -0.771701,0.18327 -1.755621,0.79099 l 0.01929,-0.0289 q 0.02894,-0.0386 0.08682,-0.0965 0.144694,-0.16399 0.347266,-0.36656 0.617361,-0.58842 1.263661,-1.0225 0.897103,-0.60772 1.668804,-0.77171 0.289388,-0.0675 0.549837,-0.0675 0.627008,0 1.118968,0.35691 0.897102,0.63666 1.427647,2.13183 0.183279,0.5209 1.128613,4.75561 0.945335,4.22506 1.63022,5.19934 z" />
      <path
         inkscape:connector-curvature="0"
         id="path908"
         style="font-style:normal;font-variant:normal;font-weight:normal;font-stretch:normal;font-size:19.75555611px;font-family:'Enchanted Land';-inkscape-font-specification:'Enchanted Land';stroke-width:0.26458332"
         d="m 77.533204,124.5909 -0.0096,0.01 z m 4.919597,-6.74274 q -0.598069,-0.18328 -1.311893,-0.59807 -0.250803,-0.14469 -0.607715,-0.38585 l -0.607715,-0.3955 q -0.01929,0.18328 -0.01929,0.34727 v 0.0965 q 0.05788,1.24437 1.273307,2.22829 0.434082,0.34726 1.13826,0.76205 l 0.299034,0.16399 0.289388,0.17363 q 0.376205,0.21222 0.559484,0.31833 0.221864,0.1254 0.781347,0.45337 l 0.463021,0.27975 0.463021,0.27009 q 1.109321,0.65595 1.109321,0.66559 -0.03858,0.0772 -0.530545,0.81994 -0.559483,0.85851 -1.118967,1.67845 -1.659158,2.41156 -1.996777,2.5659 -0.33762,0.15434 -0.704178,0.15434 -0.482313,0 -1.012858,-0.26044 -0.318327,-0.15435 -0.790994,-0.47267 l -0.376204,-0.26045 q -0.221865,-0.1447 -0.376205,-0.24116 -0.675239,-0.41479 -1.389062,-0.41479 -0.800641,0.01 -1.311893,0.56913 0.520899,-1.33118 1.427648,-1.95819 0.598068,-0.41479 1.273307,-0.41479 0.598069,0 1.254015,0.32797 0.414789,0.21222 1.061089,0.6463 l 0.501606,0.33762 q 0.299035,0.18328 0.549838,0.31833 0.144694,0.0772 0.289388,0.0772 0.46302,0 0.887456,-0.81993 0.202572,-0.3955 0.289388,-0.791 0.04823,-0.19292 0.04823,-0.30868 0,-0.10611 -0.04823,-0.13505 -0.482313,-0.27974 -1.061089,-0.627 l -1.022505,-0.60772 q -1.360123,-0.81028 -2.09324,-1.24437 -1.282953,-0.76205 -1.736328,-1.71703 -0.221864,-0.48231 -0.221864,-1.06109 0,-0.36656 0.08682,-0.7717 0.08682,-0.3955 0.279742,-0.90675 l 0.173633,-0.44373 0.173633,-0.43408 0.01929,-0.0289 1.967839,-1.44694 q 0.482313,0.23151 1.2926,0.76205 l 0.627007,0.40515 q 0.356912,0.22186 0.6463,0.3762 0.472667,0.2508 1.051443,0.2508 h 0.07717 q 0.49196,-0.01 1.041797,-0.20257 0.202572,-0.0772 0.41479,-0.17363 0.163986,-0.0675 0.327973,-0.16399 0.241157,-0.1254 0.250803,-0.1254 -0.395497,0.56913 -1.080382,1.15755 -0.472667,0.3955 -1.273307,0.95499 -0.49196,0.34726 -1.070736,0.34726 -0.299034,0 -0.627007,-0.0965 z" />
      <path
         inkscape:connector-curvature="0"
         id="path910"
         style="font-style:normal;font-variant:normal;font-weight:normal;font-stretch:normal;font-size:19.75555611px;font-family:'Enchanted Land';-inkscape-font-specification:'Enchanted Land';stroke-width:0.26458332"
         d="m 100.76556,116.98964 q -1.234727,-0.15434 -2.363339,-0.86816 -1.128613,-0.72347 -1.745974,-2.209 0.05788,0.13505 0.819932,0.5209 0.762055,0.3762 1.823145,0.51125 0.395499,0.0579 2.411576,0.13505 2.01608,0.0675 3,0.53054 0.96464,0.47267 1.7267,2.37299 -0.70419,-0.63666 -3.78136,-0.89711 h -0.28939 q -0.0965,0.54019 -0.0965,1.2926 0,1.48553 0.37621,3.82957 0.0675,0.45338 0.0675,0.86817 0,2.88423 -3.395505,4.35046 0.308678,-0.0868 0.588418,-0.45337 0.241157,-0.30868 0.356917,-0.76206 0.0868,-0.81028 0.0868,-1.58199 0,-0.84887 -0.0965,-1.65915 -0.19293,-1.5627 -0.327977,-2.90353 -0.0193,-0.16399 -0.0193,-0.33762 0,-1.21543 0.858527,-2.73954 z" />
      <path
         inkscape:connector-curvature="0"
         id="path912"
         style="font-style:normal;font-variant:normal;font-weight:normal;font-stretch:normal;font-size:19.75555611px;font-family:'Enchanted Land';-inkscape-font-specification:'Enchanted Land';stroke-width:0.26458332"
         d="m 122.1928,121.89959 q 0.41479,-0.0772 0.57878,-0.44373 0.0579,-0.11575 0.0772,-0.2508 0.01,-0.0386 0.01,-0.0772 v -0.0482 l -0.0289,-0.0965 q -0.26045,-1.77491 -1.22508,-3.78133 l -1.81351,4.16719 q 0.23151,0.0482 1.10933,0.31832 0.72347,0.22187 1.12862,0.22187 0.0868,0 0.16398,-0.01 z m 4.1865,4.87137 q 1.05145,1.48552 2.373,1.85208 -0.0482,0 -1.34084,0.53054 -0.35691,0.1447 -0.69453,0.1447 -0.95499,0 -1.87139,-1.09968 -0.80064,-1.24437 -1.74598,-5.32474 -0.52091,0.36656 -1.14792,0.36656 -0.47267,0 -0.99357,-0.20257 -0.72347,-0.2701 -1.21543,-0.2701 -0.37621,0 -0.62701,0.1447 l -1.39872,2.92282 q 0.65595,0.18328 1.33119,0.62701 l -1.57235,1.16719 q -0.6656,-0.36655 -1.40836,-0.46302 -0.25081,-0.0289 -0.50161,-0.0289 -0.791,0 -1.582,0.31833 0.21222,-0.38585 0.61737,-0.79099 0.35691,-0.35692 0.7717,-0.57878 0.51126,-0.28939 1.0611,-0.35691 l 4.29261,-9.5691 q -0.53055,-0.34726 -1.1865,-0.34726 -0.30868,0 -0.6463,0.0772 -0.77171,0.18327 -1.75563,0.79099 l 0.0193,-0.0289 q 0.0289,-0.0386 0.0868,-0.0965 0.14469,-0.16399 0.34727,-0.36656 0.61736,-0.58842 1.26366,-1.0225 0.89711,-0.60772 1.66882,-0.77171 0.28939,-0.0675 0.54984,-0.0675 0.62701,0 1.11897,0.35691 0.89711,0.63666 1.42766,2.13183 0.18328,0.5209 1.12862,4.75561 0.94534,4.22506 1.63023,5.19934 z" />
      <path
         inkscape:connector-curvature="0"
         id="path914"
         style="font-style:normal;font-variant:normal;font-weight:normal;font-stretch:normal;font-size:19.75555611px;font-family:'Enchanted Land';-inkscape-font-specification:'Enchanted Land';stroke-width:0.26458332"
         d="m 25.282117,146.13237 q 0,1.1479 1.003212,1.90031 h 0.0096 l 0.0096,0.01 1.427648,-1.06109 q -0.694531,-0.41479 -0.694531,-1.24437 v -3.27009 h -0.0096 l 0.0096,-5.60448 q 0,-0.36656 -0.163987,-0.68488 -0.125401,-0.26045 -0.356912,-0.48232 -0.08682,-0.0772 -0.183279,-0.15434 -0.08682,-0.0675 -0.173633,-0.11575 l -0.05788,-0.0386 -0.04823,-0.0289 -0.01929,-0.01 -0.01929,-0.01 h -0.0096 l -1.427647,1.06109 q 0.173632,0.0965 0.347265,0.29904 0.347266,0.39549 0.347266,0.94533 v 4.01285 q -0.366558,-0.57878 -1.350478,-0.97428 -0.472667,-0.18327 -0.87781,-0.18327 h -0.03859 l -1.52411,0.01 v -3.55947 q 0,-1.6881 -1.726682,-1.6881 -1.389063,0 -1.823145,1.08038 1.78456,0 1.78456,1.51447 v 2.65272 h -0.163987 q -0.655946,-0.01 -0.964627,-0.39549 -0.09646,-0.11576 -0.15434,-0.26045 -0.0096,-0.0386 -0.01929,-0.0675 0.173632,1.15755 0.87781,1.8135 0.212218,0.19293 0.424436,0.29903 v 4.418 q -1.070736,0.0868 -1.9389,0.91639 -0.434082,0.42444 -0.655946,0.82958 0.790994,-0.31833 1.581988,-0.31833 0.250803,0 0.501605,0.0289 0.405144,0.0579 0.800641,0.19293 0.318327,0.10611 0.607715,0.27009 l 0.125401,-0.0868 h 0.0096 l 1.427648,-1.06109 -0.0096,-0.01 0.01929,-0.01 -0.212218,-0.1254 q -0.202571,-0.18328 -0.318327,-0.40514 -0.173632,-0.31833 -0.173632,-0.69453 v -3.74275 q 1.041797,0.0193 2.122179,0.0482 0.675238,0.0482 1.118967,0.27974 0.347265,0.17363 0.549837,0.45337 v 1.45659 h 0.0096 z m -6.868142,-6.34725 q -0.0096,-0.01 -0.0096,-0.0193 v -0.0386 q 0,0.0289 0.0096,0.0579 z" />
      <path
         inkscape:connector-curvature="0"
         id="path916"
         style="font-style:normal;font-variant:normal;font-weight:normal;font-stretch:normal;font-size:19.75555611px;font-family:'Enchanted Land';-inkscape-font-specification:'Enchanted Land';stroke-width:0.26458332"
         d="m 42.513113,137.45073 q -1.234722,-0.15434 -2.363336,-0.86817 -1.128613,-0.72347 -1.745974,-2.20899 0.05788,0.13504 0.819933,0.52089 0.762055,0.37621 1.823144,0.51126 0.395497,0.0579 2.411567,0.13504 2.01607,0.0675 2.999989,0.53055 0.964627,0.47267 1.726682,2.37298 -0.704177,-0.63665 -3.781337,-0.8971 h -0.289388 q -0.09646,0.54019 -0.09646,1.2926 0,1.48552 0.376204,3.82957 0.06752,0.45337 0.06752,0.86816 0,2.88423 -3.395486,4.35047 0.30868,-0.0868 0.588422,-0.45338 0.241157,-0.30868 0.356912,-0.76205 0.08682,-0.81029 0.08682,-1.58199 0,-0.84887 -0.09646,-1.65916 -0.192926,-1.56269 -0.327973,-2.90353 -0.01929,-0.16398 -0.01929,-0.33761 0,-1.21543 0.858518,-2.73954 z" />
      <path
         inkscape:connector-curvature="0"
         id="path918"
         style="font-style:normal;font-variant:normal;font-weight:normal;font-stretch:normal;font-size:19.75555611px;font-family:'Enchanted Land';-inkscape-font-specification:'Enchanted Land';stroke-width:0.26458332"
         d="m 64.286121,146.13237 q 0,1.1479 1.003212,1.90031 h 0.0096 l 0.0096,0.01 1.427648,-1.06109 q -0.694532,-0.41479 -0.694532,-1.24437 v -3.27009 h -0.0096 l 0.0096,-5.60448 q 0,-0.36656 -0.163986,-0.68488 -0.125402,-0.26045 -0.356912,-0.48232 -0.08682,-0.0772 -0.183279,-0.15434 -0.08682,-0.0675 -0.173633,-0.11575 l -0.05788,-0.0386 -0.04823,-0.0289 -0.01929,-0.01 -0.01929,-0.01 h -0.0096 l -1.427648,1.06109 q 0.173633,0.0965 0.347266,0.29904 0.347265,0.39549 0.347265,0.94533 v 4.01285 q -0.366558,-0.57878 -1.350477,-0.97428 -0.472667,-0.18327 -0.87781,-0.18327 h -0.03858 l -1.524111,0.01 v -3.55947 q 0,-1.6881 -1.726682,-1.6881 -1.389062,0 -1.823144,1.08038 1.784559,0 1.784559,1.51447 v 2.65272 h -0.163986 q -0.655946,-0.01 -0.964627,-0.39549 -0.09646,-0.11576 -0.15434,-0.26045 -0.0096,-0.0386 -0.01929,-0.0675 0.173633,1.15755 0.877811,1.8135 0.212217,0.19293 0.424435,0.29903 v 4.418 q -1.070735,0.0868 -1.9389,0.91639 -0.434082,0.42444 -0.655946,0.82958 0.790994,-0.31833 1.581988,-0.31833 0.250803,0 0.501606,0.0289 0.405143,0.0579 0.80064,0.19293 0.318327,0.10611 0.607715,0.27009 l 0.125402,-0.0868 h 0.0096 l 1.427648,-1.06109 -0.0096,-0.01 0.01929,-0.01 -0.212218,-0.1254 q -0.202572,-0.18328 -0.318327,-0.40514 -0.173633,-0.31833 -0.173633,-0.69453 v -3.74275 q 1.041797,0.0193 2.122179,0.0482 0.675239,0.0482 1.118967,0.27974 0.347266,0.17363 0.549837,0.45337 v 1.45659 h 0.0096 z m -6.868143,-6.34725 q -0.0096,-0.01 -0.0096,-0.0193 v -0.0386 q 0,0.0289 0.0096,0.0579 z" />
      <path
         inkscape:connector-curvature="0"
         id="path920"
         style="font-style:normal;font-variant:normal;font-weight:normal;font-stretch:normal;font-size:19.75555611px;font-family:'Enchanted Land';-inkscape-font-specification:'Enchanted Land';stroke-width:0.26458332"
         d="m 83.545588,143.49894 q -1.099674,-0.61737 -2.32475,-0.6656 l -0.03859,-0.5016 q -0.07717,-1.32154 -0.07717,-2.31511 0,-2.0643 0.347265,-2.72024 l 0.762055,0.1061 q 1.041797,0.15434 1.736328,0.86817 0.627008,0.65594 0.82958,1.63022 0.07717,0.38585 0.07717,0.7717 0,0.54984 -0.163987,1.09967 -0.279742,0.96463 -1.147906,1.72669 z m 0.578776,0.3762 q 1.418002,-1.1672 1.842437,-1.74597 0.704178,-0.96463 0.704178,-2.32476 v -0.0772 q -0.01929,-1.38906 -0.848872,-2.41156 -0.790994,-0.98392 -2.160764,-1.4373 -0.684885,-0.23151 -1.67845,-0.35691 -4.176834,-0.15434 -5.035352,-0.66559 -0.848871,-0.51125 -0.906749,-0.6463 l 0.954981,1.43729 q 0.482313,0.50161 1.128613,0.85852 0.72347,0.40514 1.331185,0.5209 l 1.205783,0.16399 q -1.254015,0.91639 -1.44694,2.24758 -0.135048,0.8971 -0.135048,1.51446 0,0.30868 0.02894,0.54984 l 0.144694,1.55305 q -1.639865,0.45337 -2.546615,1.40835 1.225076,-0.27974 2.372982,-0.27974 h 0.279742 l 0.144694,1.53376 q 0.01929,0.24115 0.01929,0.45337 0,0.84887 -0.327973,1.35048 -0.212218,0.31833 -0.443729,0.3955 0.858518,-0.12541 1.379417,-0.68489 0.318326,-0.33762 0.762055,-1.24437 0.318326,-0.63665 0.376204,-1.52411 1.736328,0.7717 2.469445,2.42122 0.742762,1.63986 1.398708,1.98713 0.385851,0.21221 0.819933,0.21221 0.289388,0 0.598069,-0.0965 0.771701,-0.23151 0.810286,-1.46623 -0.289388,0.18328 -0.540191,0.18328 -0.675238,0 -1.109321,-1.2926 -0.607714,-1.76527 -1.591634,-2.53697 z" />
      <path
         inkscape:connector-curvature="0"
         id="path922"
         style="font-style:normal;font-variant:normal;font-weight:normal;font-stretch:normal;font-size:19.75555611px;font-family:'Enchanted Land';-inkscape-font-specification:'Enchanted Land';stroke-width:0.26458332"
         d="m 102.34342,142.41855 0.0193,0.24116 q 0.0386,0.41479 0.0386,1.20578 v 0.33762 q -0.0579,0.87781 -0.83923,1.45659 0.53055,-0.0772 1.10933,-0.0772 1.74599,0 3.88747,0.75241 -1.9582,1.6688 -2.02573,1.6688 -1.94856,-0.74276 -4.30226,-0.74276 -1.263658,0 -2.633428,0.21222 1.003212,-1.05145 2.797418,-1.65916 0.0772,-0.29903 0.0772,-0.57878 0,-0.15434 -0.0193,-0.29903 l -0.43408,-3.90674 q -0.03858,-0.26045 -0.03858,-0.54984 0,-0.42443 0.08682,-0.91639 0.1254,-0.71383 0.44373,-1.28296 0.38585,-0.71382 1.05144,-1.15755 l -1.21543,-0.17363 q -0.607715,-0.10611 -1.70739,-0.71382 -1.090028,-0.60772 -1.707389,-2.09324 0.05788,0.13504 0.819932,0.52089 0.762056,0.37621 1.823145,0.51126 0.41479,0.0579 2.421222,0.13504 2.01608,0.0675 2.98071,0.53055 0.97428,0.46302 1.73634,2.37298 -0.70418,-0.63665 -4.19615,-0.95498 -0.41479,0.75241 -0.41479,2.03536 0,0.23151 0.01,0.47267 l 0.0868,1.01286 0.0193,0.2508 0.3955,0.0772 q 0.791,0.17363 1.17685,0.17363 0.0965,0 0.17364,-0.01 0.48231,-0.0675 0.65594,-0.44373 0.0965,-0.19293 0.0965,-0.36656 0.40515,0.49196 0.40515,0.93569 0,0.33762 -0.24116,0.6463 -0.46302,0.57877 -1.17685,0.57877 -0.16399,0 -0.34727,-0.0289 -0.81029,-0.12541 -1.01286,-0.17364 z" />
      <path
         inkscape:connector-curvature="0"
         id="path924"
         style="font-style:normal;font-variant:normal;font-weight:normal;font-stretch:normal;font-size:19.75555611px;font-family:'Enchanted Land';-inkscape-font-specification:'Enchanted Land';stroke-width:0.26458332"
         d="m 123.31178,145.76581 h -0.0193 q -3.56914,2.72989 -3.60773,2.7106 -0.87781,-0.53055 -1.49518,-1.2926 -0.9164,-1.11897 -1.10932,-2.89388 -0.0289,-0.27974 -0.0289,-0.55948 0,-1.78456 1.22508,-3.65594 l 0.15434,-0.22186 0.17364,-0.23151 q 0.22186,-0.29904 0.33761,-0.48232 0.31833,-0.5209 0.31833,-0.95498 v -0.0965 q -0.0193,-0.29904 -0.30868,-0.53055 -0.27009,-0.21221 -0.54984,-0.21221 h -0.0289 q -0.40515,0.01 -0.63666,0.28938 -0.15434,0.19293 -0.15434,0.42444 0,0.14469 0.0579,0.30868 h -0.01 l -0.01,-0.01 q -0.01,-0.0193 -0.0289,-0.0386 -0.0579,-0.0579 -0.11575,-0.13505 -0.0772,-0.0965 -0.13505,-0.19292 -0.0772,-0.12541 -0.11576,-0.24116 -0.0965,-0.30868 -0.0965,-0.58842 0,-0.37621 0.18328,-0.68489 0.31833,-0.53054 1.10933,-0.67524 0.16399,-0.0289 0.31833,-0.0289 0.38585,0 0.68489,0.18328 0.55948,0.32798 1.66881,1.21543 l -0.43408,0.54984 q -0.44373,0.55948 -0.9164,1.59163 -0.56914,1.23473 -0.67525,2.16077 -0.0482,0.43408 -0.0482,0.83922 0,1.02251 0.31832,1.92926 0.50161,1.43729 1.74598,2.38263 l 2.20901,-1.63987 v -7.31187 q 0,-0.54984 -0.34726,-0.94533 -0.17364,-0.20258 -0.34727,-0.29904 l 1.42765,-1.06109 h 0.0193 l 0.01,0.01 0.0193,0.01 0.0482,0.0289 0.0675,0.0386 q 0.0772,0.0482 0.16399,0.11575 0.0965,0.0772 0.18328,0.15434 0.23151,0.22187 0.35692,0.48232 0.16398,0.31832 0.16398,0.68488 l 0.01,8.84563 q 0,0.82958 0.69454,1.24437 l -1.42766,1.06109 -0.01,-0.01 h -0.01 q -1.00321,-0.75241 -1.00321,-1.90031 z" />
      <path
         inkscape:connector-curvature="0"
         id="path926"
         style="font-style:normal;font-variant:normal;font-weight:normal;font-stretch:normal;font-size:19.75555611px;font-family:'Enchanted Land';-inkscape-font-specification:'Enchanted Land';stroke-width:0.26458332"
         d="m 21.230685,157.38264 q -1.234723,-0.15434 -2.363336,-0.86816 -1.128613,-0.72347 -1.745974,-2.209 0.05788,0.13505 0.819932,0.5209 0.762056,0.3762 1.823145,0.51125 0.395497,0.0579 2.411567,0.13505 2.01607,0.0675 2.999989,0.53054 0.964627,0.47267 1.726682,2.37299 -0.704178,-0.63666 -3.781337,-0.89711 h -0.289388 q -0.09646,0.54019 -0.09646,1.2926 0,1.48553 0.376205,3.82957 0.06752,0.45338 0.06752,0.86817 0,2.88423 -3.395486,4.35046 0.30868,-0.0868 0.588422,-0.45337 0.241157,-0.30868 0.356912,-0.76206 0.08682,-0.81028 0.08682,-1.58199 0,-0.84887 -0.09646,-1.65915 -0.192925,-1.5627 -0.327973,-2.90353 -0.01929,-0.16399 -0.01929,-0.33762 0,-1.21543 0.858518,-2.73954 z" />
      <path
         inkscape:connector-curvature="0"
         id="path928"
         style="font-style:normal;font-variant:normal;font-weight:normal;font-stretch:normal;font-size:19.75555611px;font-family:'Enchanted Land';-inkscape-font-specification:'Enchanted Land';stroke-width:0.26458332"
         d="m 41.702827,157.38264 q -1.234722,-0.15434 -2.363335,-0.86816 -1.128614,-0.72347 -1.745975,-2.209 0.05788,0.13505 0.819933,0.5209 0.762055,0.3762 1.823145,0.51125 0.395497,0.0579 2.411567,0.13505 2.01607,0.0675 2.999989,0.53054 0.964627,0.47267 1.726682,2.37299 -0.704178,-0.63666 -3.781337,-0.89711 h -0.289388 q -0.09646,0.54019 -0.09646,1.2926 0,1.48553 0.376205,3.82957 0.06752,0.45338 0.06752,0.86817 0,2.88423 -3.395486,4.35046 0.308681,-0.0868 0.588423,-0.45337 0.241156,-0.30868 0.356911,-0.76206 0.08682,-0.81028 0.08682,-1.58199 0,-0.84887 -0.09646,-1.65915 -0.192925,-1.5627 -0.327973,-2.90353 -0.01929,-0.16399 -0.01929,-0.33762 0,-1.21543 0.858517,-2.73954 z" />
      <path
         inkscape:connector-curvature="0"
         id="path930"
         style="font-style:normal;font-variant:normal;font-weight:normal;font-stretch:normal;font-size:19.75555611px;font-family:'Enchanted Land';-inkscape-font-specification:'Enchanted Land';stroke-width:0.26458332"
         d="m 61.116636,157.38264 q -1.234722,-0.15434 -2.363335,-0.86816 -1.128614,-0.72347 -1.745975,-2.209 0.05788,0.13505 0.819933,0.5209 0.762055,0.3762 1.823144,0.51125 0.395497,0.0579 2.411567,0.13505 2.01607,0.0675 2.99999,0.53054 0.964626,0.47267 1.726681,2.37299 -0.704177,-0.63666 -3.781336,-0.89711 h -0.289388 q -0.09646,0.54019 -0.09646,1.2926 0,1.48553 0.376204,3.82957 0.06752,0.45338 0.06752,0.86817 0,2.88423 -3.395486,4.35046 0.30868,-0.0868 0.588422,-0.45337 0.241157,-0.30868 0.356912,-0.76206 0.08682,-0.81028 0.08682,-1.58199 0,-0.84887 -0.09646,-1.65915 -0.192925,-1.5627 -0.327973,-2.90353 -0.01929,-0.16399 -0.01929,-0.33762 0,-1.21543 0.858518,-2.73954 z" />
      <path
         inkscape:connector-curvature="0"
         id="path932"
         style="font-style:normal;font-variant:normal;font-weight:normal;font-stretch:normal;font-size:19.75555611px;font-family:'Enchanted Land';-inkscape-font-specification:'Enchanted Land';stroke-width:0.26458332"
         d="m 86.300288,163.36333 q 0.125402,-0.59807 0.125402,-1.15756 0,-1.09967 -0.482313,-2.0643 -0.897103,-1.80385 -3.192915,-2.88423 -0.212218,-0.0965 -0.627007,-0.17363 -0.173633,-0.0193 -0.356912,-0.0193 -0.6463,0 -1.331185,0.25081 -0.56913,0.20257 -0.98392,0.67524 -0.405143,0.46302 -0.569129,1.06108 -0.163987,0.62701 -0.163987,1.21543 0,0.40515 0.07717,0.791 0.183279,0.87781 0.819933,1.89067 1.340831,2.12218 4.350467,3.24114 2.073947,-1.62057 2.334396,-2.82635 z m 1.678451,-4.22507 q 0.318327,0.86817 0.337619,1.75562 v 0.10611 q 0,0.87781 -0.299034,1.65916 -0.80064,2.21864 -5.054644,5.52731 -0.06752,0 -0.733117,-0.2508 -0.713823,-0.26045 -0.897102,-0.34727 -1.466233,-0.70418 -2.479091,-1.71703 -1.13826,-1.12862 -1.572342,-2.50803 -0.279742,-0.90675 -0.279742,-1.70739 0,-0.20257 0.01929,-0.3955 0.09646,-0.96463 0.655946,-2.01607 0.49196,-0.92604 1.639866,-1.99678 0.405143,-0.3762 1.418001,-1.08038 1.022504,-0.71382 1.254015,-0.7717 0.04823,-0.01 0.135048,-0.01 0.347265,0 1.311892,0.16399 1.21543,0.21222 2.353689,0.96463 1.610927,1.06109 2.189703,2.62378 z" />
      <path
         inkscape:connector-curvature="0"
         id="path934"
         style="font-style:normal;font-variant:normal;font-weight:normal;font-stretch:normal;font-size:19.75555611px;font-family:'Enchanted Land';-inkscape-font-specification:'Enchanted Land';stroke-width:0.26458332"
         d="m 102.7844,162.35047 0.0193,0.24115 q 0.0386,0.41479 0.0386,1.20579 v 0.33762 q -0.0579,0.87781 -0.83923,1.45658 0.53055,-0.0772 1.10933,-0.0772 1.74598,0 3.88747,0.75241 -1.95821,1.66881 -2.02573,1.66881 -1.94856,-0.74277 -4.30226,-0.74277 -1.263663,0 -2.633433,0.21222 1.003212,-1.05144 2.797423,-1.65916 0.0772,-0.29903 0.0772,-0.57877 0,-0.15434 -0.0193,-0.29904 l -0.43409,-3.90673 q -0.0386,-0.26045 -0.0386,-0.54984 0,-0.42444 0.0868,-0.9164 0.12541,-0.71382 0.44373,-1.28295 0.38586,-0.71382 1.05145,-1.15755 l -1.21543,-0.17364 q -0.60772,-0.1061 -1.707395,-0.71382 -1.090028,-0.60771 -1.707389,-2.09324 0.05788,0.13505 0.819932,0.5209 0.762055,0.3762 1.823142,0.51125 0.41479,0.0579 2.42123,0.13505 2.01608,0.0675 2.98071,0.53054 0.97428,0.46302 1.73634,2.37299 -0.70418,-0.63666 -4.19615,-0.95498 -0.41479,0.7524 -0.41479,2.03536 0,0.23151 0.01,0.47266 l 0.0868,1.01286 0.0193,0.25081 0.3955,0.0772 q 0.791,0.17363 1.17685,0.17363 0.0965,0 0.17363,-0.01 0.48232,-0.0675 0.65595,-0.44373 0.0965,-0.19292 0.0965,-0.36655 0.40515,0.49196 0.40515,0.93568 0,0.33762 -0.24116,0.6463 -0.46302,0.57878 -1.17685,0.57878 -0.16399,0 -0.34727,-0.0289 -0.81029,-0.1254 -1.01286,-0.17363 z" />
      <path
         inkscape:connector-curvature="0"
         id="path936"
         style="font-style:normal;font-variant:normal;font-weight:normal;font-stretch:normal;font-size:19.75555611px;font-family:'Enchanted Land';-inkscape-font-specification:'Enchanted Land';stroke-width:0.26458332"
         d="m 117.62872,164.9839 -0.01,0.01 z m 4.91962,-6.74274 q -0.59807,-0.18328 -1.3119,-0.59807 -0.2508,-0.14469 -0.60772,-0.38585 l -0.60771,-0.3955 q -0.0193,0.18328 -0.0193,0.34727 v 0.0965 q 0.0579,1.24437 1.27331,2.22829 0.43409,0.34726 1.13827,0.76205 l 0.29903,0.16399 0.28939,0.17363 q 0.37621,0.21222 0.55949,0.31833 0.22186,0.1254 0.78135,0.45337 l 0.46302,0.27975 0.46303,0.27009 q 1.10932,0.65595 1.10932,0.66559 -0.0386,0.0772 -0.53054,0.81994 -0.55949,0.85851 -1.11898,1.67845 -1.65916,2.41156 -1.99679,2.5659 -0.33762,0.15434 -0.70418,0.15434 -0.48231,0 -1.01286,-0.26044 -0.31833,-0.15434 -0.791,-0.47267 l -0.37621,-0.26045 q -0.22186,-0.1447 -0.3762,-0.24116 -0.67524,-0.41479 -1.38907,-0.41479 -0.80065,0.01 -1.3119,0.56913 0.5209,-1.33118 1.42765,-1.95819 0.59808,-0.41479 1.27332,-0.41479 0.59807,0 1.25402,0.32797 0.41479,0.21222 1.0611,0.6463 l 0.50161,0.33762 q 0.29903,0.18328 0.54984,0.31833 0.14469,0.0772 0.28938,0.0772 0.46303,0 0.88747,-0.81993 0.20257,-0.3955 0.28938,-0.791 0.0482,-0.19292 0.0482,-0.30868 0,-0.10611 -0.0482,-0.13504 -0.48231,-0.27975 -1.06109,-0.62701 l -1.02251,-0.60772 q -1.36013,-0.81028 -2.09325,-1.24437 -1.28296,-0.76205 -1.73634,-1.71703 -0.22186,-0.48231 -0.22186,-1.06109 0,-0.36656 0.0868,-0.7717 0.0868,-0.3955 0.27974,-0.90675 l 0.17363,-0.44373 0.17364,-0.43408 0.0193,-0.0289 1.96785,-1.44694 q 0.48231,0.23151 1.2926,0.76205 l 0.62702,0.40515 q 0.35691,0.22186 0.6463,0.3762 0.47267,0.25081 1.05145,0.25081 h 0.0772 q 0.49196,-0.01 1.0418,-0.20258 0.20257,-0.0772 0.41479,-0.17363 0.16399,-0.0675 0.32798,-0.16399 0.24116,-0.1254 0.2508,-0.1254 -0.3955,0.56913 -1.08038,1.15755 -0.47267,0.3955 -1.27332,0.95499 -0.49196,0.34726 -1.07074,0.34726 -0.29904,0 -0.62701,-0.0965 z" />
    </g>
    <path
       id="path1122"
       d="M 10.563971,109.77349 50.113281,89.62577 89.662594,110.14663 109.43722,69.851095 89.662594,30.674906 50.113281,10.154009 10.563971,30.301776 30.711726,70.597316 69.887918,90.371953 30.338624,110.14663 10.563971,70.224185 29.965517,30.301776 69.514827,10.90023 109.43722,31.047997 69.887918,50.449548 90.035688,10.90023 50.486371,32.167308 10.937073,10.90023 31.084829,50.822638 10.937073,89.998861 50.486371,109.77349 69.514827,70.224185 30.338624,89.998861 70.261048,110.14663 109.43722,89.998861 89.289463,50.822638 109.81036,11.27336 69.887918,30.674906 109.43722,50.449548 89.289463,89.998861 50.113281,70.224185 11.310176,50.822638 29.965517,10.90023 50.113281,50.449548 89.662594,70.597316 109.43722,109.77349"
       style="display:inline;fill:none;stroke:#830000;stroke-width:1.00000003;stroke-linecap:butt;stroke-linejoin:miter;stroke-opacity:1;fill-opacity:1;stroke-miterlimit:4;stroke-dasharray:3.00000008,1.00000003;stroke-dashoffset:0" />
  </g>
</svg>
